<svg xmlns="http://www.w3.org/2000/svg" version="1.1" xmlns:xlink="http://www.w3.org/1999/xlink" xmlns:svgjs="http://svgjs.com/svgjs" width="503" height="331" preserveAspectRatio="none" viewBox="0 0 503 331">
    <g mask="url(&quot;#SvgjsMask1036&quot;)" fill="none">
        <circle r="3.845" cx="423.625" cy="108.465" filter="url(#SvgjsFilter1037)" fill="rgba(59, 72, 145, 0.28)"></circle>
        <circle r="3.24" cx="99.96" cy="332.38" filter="url(#SvgjsFilter1037)" fill="rgba(59, 72, 145, 0.28)"></circle>
        <circle r="4.45" cx="430.51" cy="319.92" filter="url(#SvgjsFilter1037)" fill="rgba(66, 68, 90, 0.56)"></circle>
        <circle r="4.165" cx="20.485" cy="69.78500000000001" filter="url(#SvgjsFilter1037)" fill="rgba(59, 72, 145, 0.28)"></circle>
        <circle r="4.99" cx="73.36999999999999" cy="170.79000000000002" filter="url(#SvgjsFilter1037)" fill="rgba(66, 68, 90, 0.56)"></circle>
        <circle r="3.665" cx="416.26500000000004" cy="226.665" filter="url(#SvgjsFilter1037)" fill="rgba(59, 72, 145, 0.28)"></circle>
        <circle r="3.305" cx="280.745" cy="165.935" filter="url(#SvgjsFilter1037)" fill="rgba(66, 68, 90, 0.56)"></circle>
        <circle r="3.675" cx="210.13500000000002" cy="15.315000000000001" filter="url(#SvgjsFilter1037)" fill="rgba(66, 68, 90, 0.56)"></circle>
        <circle r="3.96" cx="460.32" cy="154.21" filter="url(#SvgjsFilter1037)" fill="rgba(59, 72, 145, 0.28)"></circle>
        <circle r="3.665" cx="156.495" cy="17.365" filter="url(#SvgjsFilter1037)" fill="rgba(66, 68, 90, 0.56)"></circle>
        <circle r="2.91" cx="187.46" cy="188.75" filter="url(#SvgjsFilter1037)" fill="rgba(66, 68, 90, 0.56)"></circle>
        <circle r="3.895" cx="47.595000000000006" cy="269.195" filter="url(#SvgjsFilter1037)" fill="rgba(59, 72, 145, 0.28)"></circle>
        <circle r="4.975" cx="354.975" cy="26.125" filter="url(#SvgjsFilter1037)" fill="rgba(66, 68, 90, 0.56)"></circle>
        <circle r="3.865" cx="264.515" cy="8.675" filter="url(#SvgjsFilter1037)" fill="rgba(66, 68, 90, 0.56)"></circle>
        <circle r="2.915" cx="325.805" cy="73.185" filter="url(#SvgjsFilter1037)" fill="rgba(66, 68, 90, 0.56)"></circle>
        <circle r="5.355" cx="250.83499999999998" cy="232.24499999999998" filter="url(#SvgjsFilter1037)" fill="rgba(66, 68, 90, 0.56)"></circle>
        <circle r="4.51" cx="437.75" cy="180.28" filter="url(#SvgjsFilter1037)" fill="rgba(66, 68, 90, 0.56)"></circle>
        <circle r="4.37" cx="379.04" cy="238.29" filter="url(#SvgjsFilter1037)" fill="rgba(66, 68, 90, 0.56)"></circle>
        <circle r="2.85" cx="270.64000000000004" cy="41.68" filter="url(#SvgjsFilter1037)" fill="rgba(59, 72, 145, 0.28)"></circle>
        <circle r="3.46" cx="335.51" cy="25.64" filter="url(#SvgjsFilter1037)" fill="rgba(66, 68, 90, 0.56)"></circle>
        <path d="M234.2 101.9L216.6 104.9 211.4 101 217.3 100C218 100.1 218.3 99.4 218.3 98.8 218.2 98.3 217.5 97.8 217.1 98L208.9 99.1 203.6 95.5 209.5 92.9 217.3 96C217.3 96 217.5 96 217.5 96 217.9 96 218.4 95.6 218.7 95.2 218.8 94.5 218.6 94.1 217.9 93.8L212.3 91.6 218.2 89.1 234.9 95.3C234.9 95.3 235.1 95.5 235.1 95.5 235.5 95.5 236 95.1 236.3 94.7 236.6 94.1 236.2 93.4 235.5 93.3L221 87.8 228.1 84.5 234.6 86.9C234.6 86.9 234.6 86.9 234.8 86.9 235.3 87 235.7 86.8 236 86.4 236.1 85.7 235.9 85 235.3 84.7L230.9 83.2 236.1 80.8C236.8 80.6 236.9 80 236.7 79.5 236.5 78.8 235.9 78.5 235.2 78.9L230 81.1 231.8 77C231.8 76.3 231.7 75.6 231 75.5 230.4 75.3 229.9 75.4 229.6 76.1L227.2 82.6 220.1 85.7 225.6 71C225.9 70.5 225.5 69.8 224.9 69.5 224.4 69.5 223.7 69.6 223.5 70.3L217.3 87 211.4 89.5 213.5 83.9C213.8 83.2 213.4 82.8 212.8 82.5 212.4 82.2 211.7 82.6 211.4 83L208.6 90.8 202.7 93.6 203.3 87.1 209.7 81.9C210.2 81.5 210.3 80.9 209.9 80.4 209.7 79.9 208.8 79.8 208.3 80.2L203.6 84 204.3 77.6 218.2 66.4C218.7 66 218.8 65.3 218.4 64.8 218 64.3 217.3 64.3 216.8 64.7L204.6 74.4 205.4 66.9 210.8 62.5C211.3 62.1 211.3 61.4 210.9 60.9 210.5 60.4 209.9 60.4 209.4 60.8L205.7 63.6 206.3 58C206.3 57.3 205.9 56.8 205.3 56.8 204.6 56.7 204.1 57.1 204.1 57.8L203.5 63.3 200.7 59.9C200.3 59.4 199.6 59.3 199.1 59.7S198.6 60.8 199 61.3L203.2 66.4 202.4 74.2 192.6 62.2C192.2 61.7 191.5 61.7 191 62.1 190.5 62.5 190.5 63.1 190.9 63.6L202.1 77.3 201.4 83.8 197.6 79.1C197.2 78.6 196.6 78.6 196.1 79 195.6 79.4 195.5 80 195.9 80.5L201.1 86.9 200.5 93.1 195.5 89.5 194 81.2C193.9 80.8 193.2 80.3 192.8 80.4 192.1 80.6 191.8 81 191.7 81.7L192.7 87.6 187.7 84 184.8 66.4C184.6 65.7 184.2 65.4 183.5 65.4 182.8 65.5 182.5 66.2 182.5 66.6L185 82.1 178.7 77.4 177.6 70.8C177.6 70.2 177 69.9 176.3 69.8 175.9 70 175.3 70.6 175.5 71.3L176.2 75.6 171.6 72.5C171.2 72 170.5 72.1 170 72.7 169.7 73.2 169.8 73.9 170.3 74.1L174.9 77.5 170.3 78.2C169.6 78.3 169.3 79 169.5 79.4 169.4 80.1 169.9 80.4 170.3 80.4 170.5 80.4 170.5 80.4 170.8 80.5L177.4 79.3 183.7 84 168.3 86.5C167.7 86.4 167.4 87.1 167.3 87.8 167.5 88.2 167.9 88.5 168.4 88.5 168.6 88.6 168.6 88.6 168.6 88.6L186.4 85.9 191.4 89.5 185.5 90.5C184.8 90.6 184.5 91.1 184.4 91.7 184.6 92.2 185 92.7 185.5 92.7 185.7 92.8 185.7 92.8 185.9 92.8L194.1 91.4 199.2 95 193.5 97.6 185.7 94.8C185.1 94.5 184.4 94.9 184.1 95.3 184 96 184.2 96.7 184.8 96.7L190.5 98.9 184.8 101.7 167.9 95.2C167.5 95 166.8 95.3 166.5 95.8 166.4 96.4 166.6 97.1 167.2 97.4L181.7 102.9 174.7 106 168.4 103.6C167.8 103.3 167.1 103.7 167 104.4 166.7 104.8 166.9 105.5 167.5 105.8L171.9 107.3 166.7 109.7C166.2 109.9 165.9 110.5 166.1 111.2 166.3 111.5 166.7 111.7 167.1 111.8 167.1 111.8 167.4 111.8 167.6 111.8L172.8 109.4 171.2 113.8C170.9 114.2 171.3 114.9 171.7 115.2 172 115.2 172 115.2 172 115.2 172.6 115.3 173.1 114.9 173.2 114.4L175.6 108.1 182.7 104.8 177.1 119.5C177.1 120.2 177.3 120.7 177.9 121 177.9 121 178.1 121 178.1 121 178.6 121 179 120.8 179.3 120.2L185.7 103.5 191.4 101 189.2 106.6C189.2 107.3 189.3 108 190 108 190 108.2 190.2 108.3 190.2 108.3 190.6 108.3 191.1 107.9 191.4 107.5L194.2 99.7 200.1 97.1 199.4 103.4 193.1 108.6C192.6 109 192.5 109.9 192.9 110.3 193.3 110.6 194 110.7 194.5 110.5L199.1 106.5 198.5 112.9 184.8 124.1C184.3 124.5 184.2 125.2 184.6 125.7 185 126.2 185.7 126.2 186.2 125.8L198.2 116 197.4 123.8 192.2 128C191.7 128.4 191.7 129.1 192.1 129.6S193.1 130.1 193.6 129.7L197.1 126.9 196.5 132.5C196.4 133.2 196.8 133.7 197.5 133.7 198.2 133.8 198.7 133.4 198.7 132.7L199.3 127.2 202.3 130.6C202.5 130.9 202.7 131.1 202.9 131.1 203.2 131.1 203.6 131 203.9 130.8 204.4 130.4 204.4 129.7 204 129.2L199.6 124 200.4 116.3 210.4 128.3C210.6 128.5 210.8 128.8 211 128.8 211.3 128.8 211.7 128.6 212 128.4 212.5 128 212.5 127.4 212.1 126.9L200.7 113.2 201.4 106.7 205.1 111.6C205.3 111.8 205.8 111.9 206 111.9 206.2 111.9 206.4 111.9 206.7 111.7 207.2 111.3 207.3 110.4 206.8 110.2L201.7 103.6 202.3 97.4 207.5 101 208.7 109.2C208.9 109.7 209.3 110.2 209.8 110.2 210 110.3 210 110.3 210 110 210.7 110.1 211.2 109.5 211 108.8L210.1 102.9 215.3 106.5 218 124.3C218.2 124.8 218.6 125.1 219 125.1 219.3 125.1 219.3 125.1 219.3 125.1 220 125 220.4 124.6 220.3 123.9L217.8 108.4 224.1 113 225.2 119.7C225.4 120.4 225.8 120.6 226.2 120.7 226.2 120.7 226.5 120.7 226.5 120.7 227.1 120.5 227.4 119.9 227.5 119.5L226.6 114.9 231.2 118.3C231.4 118.3 231.6 118.3 231.9 118.3 232.1 118.3 232.6 118.2 232.8 118 233.1 117.3 233.2 116.7 232.5 116.4L227.9 113 232.5 112.3C233.2 112.2 233.4 111.5 233.5 111.1 233.3 110.4 232.7 110.1 232 110L225.4 111.2 219.1 106.7 234.4 104.2C235.1 104 235.6 103.4 235.4 103 235.3 102.3 234.9 101.8 234.2 101.9Z" fill="rgba(59, 72, 145, 0.28)"></path>
        <path d="M315.4 152.7L316.8 134.9 321.9 130.8 321.4 136.8C321.2 137.4 321.7 137.9 322.3 138.1 322.8 138 323.5 137.6 323.4 137.1L324.3 128.8 329.1 124.6 330.2 131 325.3 137.8C325.3 137.8 325.2 138 325.2 138 325.1 138.4 325.4 139 325.7 139.3 326.3 139.6 326.8 139.5 327.3 138.9L330.7 134 331.8 140.3 321.7 155C321.7 155 321.4 155.1 321.4 155.1 321.2 155.5 321.5 156.1 321.8 156.5 322.4 156.9 323.2 156.7 323.4 156.1L332.3 143.4 333.8 151.1 329.8 156.8C329.8 156.8 329.8 156.8 329.7 157 329.6 157.4 329.7 157.9 330 158.3 330.6 158.5 331.3 158.5 331.8 158L334.4 154.1 335.4 159.7C335.4 160.5 336 160.7 336.5 160.6 337.2 160.6 337.7 160.1 337.5 159.3L336.6 153.8 340.2 156.5C340.8 156.7 341.5 156.7 341.7 156.1 342.2 155.5 342.1 155 341.6 154.6L335.9 150.6 334.6 143 347.5 152C347.8 152.4 348.6 152.2 349.1 151.6 349.2 151.2 349.2 150.5 348.7 150.1L334 140 333 133.7 337.9 137.1C338.5 137.6 339.1 137.3 339.5 136.7 339.9 136.4 339.7 135.6 339.3 135.2L332.5 130.6 331.2 124.2 337.3 126.4 340.8 133.9C341 134.4 341.7 134.7 342.2 134.4 342.7 134.3 343 133.5 342.8 132.9L340.2 127.5 346.3 129.7 353.7 146C354 146.5 354.6 146.8 355.2 146.5 355.8 146.2 356 145.6 355.7 145L349.3 130.8 356.4 133.4 359.4 139.7C359.6 140.3 360.3 140.5 360.8 140.2 361.4 139.9 361.6 139.3 361.4 138.7L359.6 134.5 364.8 136.4C365.5 136.7 366 136.4 366.3 135.8 366.5 135.1 366.2 134.6 365.6 134.3L360.3 132.4 364.3 130.6C364.9 130.3 365.1 129.7 364.9 129.1S364 128.3 363.4 128.5L357.4 131.4 350 128.7 364.1 122.1C364.7 121.9 364.9 121.2 364.6 120.7 364.3 120.1 363.7 119.9 363.1 120.1L347.1 127.6 341 125.4 346.5 122.8C347 122.6 347.3 122 347 121.4 346.7 120.8 346.1 120.6 345.5 120.8L338.1 124.3 332.2 122.2 337 118.2 345.3 118.9C345.8 118.8 346.4 118.3 346.4 117.8 346.4 117.1 346.1 116.8 345.4 116.5L339.4 116 344.2 112 362 113.5C362.7 113.5 363.1 113.2 363.3 112.6 363.3 111.9 362.7 111.4 362.3 111.3L346.7 109.8 352.7 104.9 359.4 105.5C360.1 105.7 360.5 105.1 360.7 104.5 360.7 104 360.2 103.4 359.5 103.3L355.1 102.9 359.3 99.2C359.9 99 359.9 98.3 359.4 97.6 359.1 97.2 358.4 97.2 358 97.6L353.6 101.2 354.1 96.6C354.1 95.9 353.6 95.5 353.1 95.5 352.4 95.3 352.1 95.6 351.9 96.1 351.8 96.3 351.8 96.3 351.8 96.5L351.2 103.2 345.2 108.1 346.5 92.7C346.7 92 346.2 91.6 345.5 91.4 345 91.4 344.7 91.8 344.5 92.2 344.5 92.4 344.5 92.4 344.5 92.4L342.7 110.3 337.9 114.3 338.4 108.3C338.5 107.6 338.1 107.2 337.5 107 337 107 336.4 107.3 336.3 107.7 336.2 107.9 336.2 107.9 336.1 108.1L335.5 116.5 330.7 120.4 329.6 114.3 334.2 107.5C334.7 106.9 334.5 106.1 334.1 105.8 333.5 105.5 332.8 105.5 332.6 106.1L329.1 111.1 327.8 104.9 338.2 90.1C338.5 89.7 338.3 89 338 88.6 337.4 88.4 336.6 88.4 336.2 88.9L327.3 101.6 326 94 329.9 88.5C330.4 88 330.2 87.2 329.5 87 329.2 86.6 328.5 86.6 328.1 87.1L325.5 90.9 324.4 85.3C324.4 84.8 323.8 84.4 323.1 84.4 322.8 84.5 322.5 84.9 322.3 85.3 322.3 85.3 322.2 85.5 322.1 85.7L323.2 91.3 319.4 88.7C319 88.4 318.3 88.6 317.9 88.9 317.8 89.1 317.8 89.1 317.8 89.1 317.6 89.7 317.9 90.3 318.3 90.5L323.8 94.4 325.2 102 312.3 93.1C311.7 92.8 311.2 92.9 310.8 93.4 310.8 93.4 310.7 93.7 310.7 93.7 310.5 94.1 310.6 94.6 311.1 95L325.7 105.3 326.8 111.4 321.9 108C321.3 107.7 320.6 107.7 320.3 108.3 320.1 108.3 320 108.5 320 108.5 319.9 108.9 320.2 109.5 320.5 109.8L327.4 114.5 328.4 120.8 322.5 118.7 319 111.2C318.8 110.6 317.9 110.3 317.4 110.6 317 110.9 316.8 111.6 316.8 112.1L319.6 117.6 313.5 115.4 306 99.3C305.7 98.8 305.1 98.5 304.5 98.8 304 99.1 303.7 99.7 304 100.3L310.5 114.3 303.2 111.6 300.4 105.6C300.1 105 299.5 104.8 298.9 105.1S298.1 106 298.4 106.5L300.3 110.6 295 108.6C294.4 108.4 293.8 108.7 293.6 109.3 293.3 109.9 293.6 110.5 294.2 110.7L299.5 112.7 295.4 114.7C295.1 114.9 294.8 115 294.8 115.2 294.7 115.4 294.7 115.9 294.9 116.2 295.1 116.8 295.8 117 296.3 116.7L302.4 113.7 309.8 116.4 295.7 123.2C295.4 123.3 295.1 123.4 295 123.6 294.9 123.8 295 124.3 295.1 124.6 295.4 125.2 296 125.4 296.6 125.2L312.7 117.5 318.8 119.7 313.2 122.2C312.9 122.3 312.7 122.7 312.6 122.9 312.6 123.1 312.5 123.3 312.6 123.6 312.9 124.2 313.7 124.5 314.1 124.2L321.8 120.8 327.6 122.9 322.8 127.1 314.5 126.2C314 126.3 313.5 126.5 313.3 127 313.2 127.2 313.2 127.2 313.4 127.3 313.2 127.9 313.7 128.5 314.4 128.6L320.4 129.1 315.5 133.2 297.6 131.5C297.1 131.5 296.8 131.9 296.6 132.3 296.5 132.5 296.5 132.5 296.5 132.5 296.5 133.2 296.8 133.8 297.5 133.8L313.2 135.2 307.1 140.2 300.4 139.6C299.7 139.6 299.3 139.9 299.2 140.4 299.2 140.4 299.1 140.6 299.1 140.6 299.1 141.3 299.6 141.7 300 141.9L304.7 142.1 300.3 145.8C300.2 146 300.1 146.2 300.1 146.4 300 146.6 300 147.1 300.2 147.4 300.7 147.8 301.4 148.1 301.8 147.5L306.2 143.9 305.7 148.5C305.7 149.2 306.3 149.6 306.7 149.8 307.4 149.8 307.8 149.2 308.1 148.6L308.6 141.9 314.5 136.9 313.1 152.3C313.1 153.1 313.6 153.7 314.1 153.6 314.8 153.7 315.3 153.4 315.4 152.7Z" fill="rgba(66, 68, 90, 0.56)"></path>
        <path d="M123 116.4L116.2 114.9 119.2 111.3C119.6 111 119.6 110.2 119.2 109.7 118.6 109.4 117.9 109.4 117.6 109.7L113.4 114.4 107.1 112.9 115.5 103.6C116 102.9 116 102.2 115.5 102 115.1 101.4 114.3 101.4 113.8 102L104.5 112.4 98.7 111.2 94.5 98.2 97.9 94.3 112.4 97.6C112.6 97.5 112.8 97.4 113 97.3 113.2 97.3 113.6 96.9 113.7 96.6 114 95.9 113.5 95.3 112.8 95.3L99.6 92.3 104 87.6 110.7 88.9C110.8 89.1 111 89.1 111.2 89 111.7 88.9 112 88.5 112.1 88 112.2 87.5 111.7 86.9 111.2 86.7L105.7 85.6 111 79.7C111.4 79.3 111.4 78.6 110.9 78 110.4 77.7 109.7 77.7 109.3 78.1L104.3 83.7 102.9 79.3C102.7 78.6 101.9 78.4 101.5 78.5 100.8 78.7 100.3 79.4 100.5 80L102.4 85.8 98.1 90.5 94.2 78.6C94 77.9 93.4 77.6 92.8 77.9 92.1 78.1 91.9 78.6 92.1 79.3L96.4 92.4 92.8 96.7 79.4 93.8 77.8 88.9 87.3 78.2C87.8 77.8 87.8 76.9 87.2 76.6 86.8 76.1 86.1 76.3 85.6 76.7L77 86.3 75 80.2 79.3 75.4C79.6 75.1 79.6 74.2 79.2 73.8S78 73.5 77.4 73.9L74.1 77.6 71.7 70.2C71.5 69.5 70.7 69.3 70.1 69.5 69.6 69.7 69.1 70.3 69.4 70.9L71.8 78.4 66.8 77.4C66.3 77.3 65.6 77.6 65.4 78.3 65.3 78.8 65.8 79.6 66.3 79.7L72.6 80.9 74.6 87.1 62 84.4C61.3 84.4 60.6 84.6 60.4 85.4 60.4 85.9 60.8 86.6 61.3 86.7L75.5 89.6 77.1 94.5 68 104.8 62.6 103.5 58.3 90.3C58.1 89.7 57.5 89.4 56.9 89.6 56.2 89.8 55.7 90.4 55.9 91.1L59.8 103 53.5 101.7 51.7 96C51.5 95.4 50.9 95.1 50.3 95.3 49.6 95.5 49.3 96.1 49.5 96.7L51 101.2 43.7 99.6C43.2 99.5 42.4 100 42.3 100.5 42.3 101.2 42.5 101.8 43.2 101.8L50.8 103.6 47.2 107.6C46.9 108.1 46.9 108.8 47.3 109.2 47.6 109.5 48.1 109.6 48.6 109.5 48.6 109.5 48.8 109.4 48.9 109.1L53.6 104.1 59.9 105.3 51 115.5C50.4 115.9 50.4 116.6 51.1 117.1 51.3 117.3 51.6 117.4 52 117.3 52.3 117.2 52.5 117.1 52.7 117.1L62.4 105.9 67.5 107 71.8 120 67.8 124.4 54.1 121.5C53.4 121.3 52.8 121.7 52.8 122.4 52.5 123 52.9 123.6 53.7 123.8L66.1 126.3 61.8 131.3 55.7 130C55.2 129.9 54.7 130.3 54.4 130.9 54.4 131.6 54.6 132.2 55.3 132.2L59.9 133.3 55.2 138.6C54.7 139 54.9 139.6 55.3 140.2 55.6 140.3 56.1 140.4 56.5 140.3 56.5 140.3 56.7 140.2 56.9 140.1L61.9 134.5 63.6 139.8C63.8 140.2 64.4 140.7 65.1 140.5 65.7 140.3 65.9 139.6 65.8 139.1L63.6 132.5 67.9 127.6 72.1 140.6C72.3 141.2 73.1 141.4 73.7 141.2S74.7 140.5 74.5 139.8L69.8 125.6 73.4 121.6 86.9 124.5 88.7 130 79 140.7C78.7 141.3 78.7 142 79.1 142.5 79.4 142.7 79.9 142.7 80.3 142.6 80.5 142.5 80.7 142.5 80.9 142.2L89.5 132.6 91.5 138.7 87.2 143.6C86.9 144 86.9 144.7 87.3 145.3 87.9 145.6 88.6 145.6 88.9 145.2L92.3 141.3 94.6 148.1C94.7 148.5 95.5 148.9 96 148.8 96.6 148.6 97 147.7 96.9 147.3L94.7 140.5 99.5 141.7C99.8 141.7 100 141.6 100.2 141.5 100.6 141.4 101 141 101.1 140.8 101.1 140 100.7 139.5 100.1 139.2L93.8 138 91.8 131.8 104.5 134.5C105.2 134.7 105.8 134.3 105.9 133.8 106.1 133 105.7 132.4 105.1 132.1L91 129.2 89.2 123.7 98.3 113.4 103.6 114.5 108.2 128.8C108.5 129.4 109 129.7 109.7 129.5 110.3 129.3 110.6 128.7 110.4 128.1L106.1 115.1 112.5 116.6 114.6 123.2C114.8 123.6 115.6 124 116.3 123.8 116.9 123.6 117.1 122.8 117 122.4L115.2 117.1 122.6 118.7C122.8 118.6 122.8 118.6 123 118.5 123.4 118.4 123.8 118 123.9 117.8 123.9 117.1 123.5 116.5 123 116.4ZM88.4 121.2L87.3 122.2 86 121.9 75.1 119.6 73.9 119.3 73.5 118 70.1 107.6 69.6 106.3 70.5 105.4 77.9 97.1 78.7 96.1 80.2 96.3 90.9 98.7 92.4 98.9 92.8 100.2 96.2 110.6 96.6 111.9 95.5 112.9 88.4 121.2Z" fill="rgba(66, 68, 90, 0.56)"></path>
        <path d="M16.9 202.4L9.2 197.4 8.6 194.9 12.8 191.1 15.3 191.8 19.5 200.1C19.5 200.2 19.5 200.2 19.6 200.3 19.8 200.4 20 200.5 20.3 200.4 20.6 200.2 20.7 199.9 20.5 199.6L16.9 192.4 20.7 193.6 22.3 196.8C22.3 196.8 22.4 196.9 22.4 196.9 22.6 197 22.8 197.1 23.1 197 23.4 196.9 23.5 196.5 23.3 196.2L22.3 194.1 25.1 195C25.3 195.1 25.7 195 25.8 194.7S25.7 194 25.4 193.8L22.7 193 24.7 191.9C25 191.8 25.1 191.4 25 191 24.8 190.9 24.5 190.7 24.2 190.8L21 192.5 17.2 191.2 24.4 187.5C24.7 187.4 24.8 187 24.7 186.8 24.5 186.5 24.2 186.3 23.9 186.5L15.7 190.7 13.1 189.9 12 184.4 13.9 182.7 23.2 183C23.5 183.1 23.8 182.8 23.8 182.5S23.6 182 23.2 181.9L15.1 181.6 18.2 178.8 21.7 179C22 179 22.2 178.8 22.3 178.4S22.1 177.8 21.8 177.8L19.3 177.8 21.6 175.8C21.8 175.5 21.8 175.1 21.5 174.9 21.3 174.6 21 174.6 20.8 174.8L18.5 176.9 18.6 174.5C18.7 174.1 18.5 173.9 18.1 173.9 17.8 173.9 17.5 174.1 17.5 174.4L17.4 177.9 14.3 180.7 14.8 172.6C14.8 172.2 14.5 171.9 14.2 171.9S13.6 172.1 13.6 172.4L13.1 181.7 11.1 183.5 5.8 181.8 5.3 179.2 10.3 171.5C10.5 171.2 10.4 170.8 10.1 170.6 9.8 170.4 9.5 170.6 9.3 170.8L4.9 177.6 4 173.7 6 170.7C6.2 170.4 6 170.1 5.8 169.8 5.6 169.7 5.2 169.8 5 170.1L3.7 172 3.1 169.1C3 168.9 2.7 168.7 2.4 168.7 2.1 168.8 1.9 169.1 2 169.4L2.6 172.3 0.5 171C0.3 170.9-0.1 170.9-0.2 171.2-0.4 171.4-0.4 171.6-0.1 171.9-0.1 171.9-0.1 172-0.1 172L2.9 173.9 3.7 177.9-3.1 173.5C-3.4 173.3-3.7 173.3-3.9 173.6-4 173.9-4 174.1-3.8 174.3-3.8 174.4-3.8 174.4-3.8 174.4L4.1 179.5 4.6 182 0.4 185.8-2 185-6.3 176.7C-6.4 176.5-6.8 176.4-7 176.4-7.3 176.6-7.4 177-7.3 177.3L-3.6 184.5-7.5 183.3-9.1 180.1C-9.3 179.8-9.6 179.6-9.8 179.9-10.1 180-10.2 180.4-10.2 180.6L-9 182.7-11.8 181.8C-12.1 181.8-12.4 181.9-12.6 182.2-12.6 182.4-12.6 182.6-12.4 182.8-12.3 182.9-12.3 182.9-12.2 182.9L-9.4 183.8-11.5 185C-11.8 185.1-11.8 185.5-11.8 185.7-11.7 185.8-11.7 185.8-11.6 185.9-11.5 186-11.2 186.1-11 186.1L-7.8 184.4-4 185.6-11.2 189.3C-11.5 189.5-11.7 189.8-11.4 190.1-11.4 190.2-11.4 190.2-11.4 190.3-11.2 190.5-10.9 190.5-10.7 190.4L-2.4 186.1 0 186.9 1.3 192.5-0.6 194.2-10 193.7C-10.3 193.7-10.6 194-10.6 194.3S-10.3 194.9-10 195L-1.9 195.3-4.9 198-8.4 197.9C-8.7 197.9-9 198.1-9 198.4-9 198.7-8.8 199-8.5 199L-6.1 199.1-8.4 201.1C-8.5 201.3-8.6 201.7-8.4 201.9-8.2 202.2-7.7 202.2-7.5 202.1L-5.3 200-5.4 202.4C-5.4 202.6-5.4 202.7-5.4 202.8-5.2 203-5 203-4.9 203-4.6 203-4.3 202.8-4.3 202.5L-4.1 198.9-1.1 196.2-1.6 204.3C-1.6 204.5-1.5 204.6-1.3 204.7-1.3 204.8-1.2 204.9-1 204.9-0.7 204.9-0.4 204.6-0.4 204.3L0.2 195.1 2.1 193.4 7.4 195.1 8 197.6 2.9 205.4C2.8 205.7 2.8 206 2.9 206.1 3 206.2 3 206.2 3.1 206.2 3.3 206.4 3.7 206.3 3.9 206L8.3 199.2 9.2 203.2 7.2 206.2C7.1 206.4 7.2 206.7 7.3 206.8 7.3 206.8 7.4 206.9 7.4 206.9 7.6 207.2 8 207.1 8.2 206.8L9.5 204.7 10.1 207.6C10.1 207.8 10.2 207.9 10.3 207.9 10.4 208.1 10.7 208.2 10.8 208.1 11.2 208.1 11.3 207.8 11.3 207.4L10.7 204.6 12.6 205.8C12.9 206 13.3 206 13.5 205.7 13.6 205.4 13.5 205 13.3 204.9L10.3 203 9.5 199 16.3 203.4C16.6 203.6 16.9 203.5 17.2 203.2 17.3 203 17.2 202.6 16.9 202.4ZM11.5 190.6L8.3 193.5 7.8 194 7.1 193.8 3.1 192.5 2.4 192.2 2.3 191.6 1.4 187.4 1.2 186.8 1.7 186.3 5 183.4 5.5 182.9 6.1 183.1 10.1 184.4 10.8 184.6 11 185.3 11.9 189.5 12 190.1 11.5 190.6Z" fill="rgba(59, 72, 145, 0.28)"></path>
        <path d="M460.7 174.2L455.3 179.8 453.8 175.3C453.7 174.8 453.1 174.4 452.4 174.5 451.9 174.8 451.5 175.4 451.8 175.9L453.5 181.6 449.4 186.2 446 174.3C445.7 173.8 445.1 173.4 444.6 173.5 443.8 173.8 443.5 174.4 443.8 175L447.6 188 441.1 194.8 439.3 184.2 432.9 192.8 430.2 183.9 439.4 173.9C439.7 174 439.7 173.8 439.8 173.5 439.9 173.1 439.7 172.6 439.4 172.3 439 172 438.3 172 437.7 172.4L429.4 181.4 427.8 175.5 431.8 171.2C432.1 171 432.1 170.8 432.2 170.6 432.2 170.4 432.1 169.9 431.7 169.6 431.4 169.2 430.7 169.3 430.3 169.7L427 173 424.6 165.6C424.6 164.9 423.9 164.7 423.2 164.8 422.7 164.9 422.4 165.5 422.6 166.3L424.8 173.7 420.2 172.6C419.6 172.4 419 173 418.9 173.4 418.7 174.1 419.1 174.6 419.7 174.8L425.6 176.1 427.2 182 415.4 179.2C414.8 179.1 414.2 179.4 414.1 180.1 414 180.5 414.3 181.3 414.9 181.4L428 184.5 430.7 193.4 420.7 189.9 424.8 199.6 415.7 197.5 411.9 184.6C411.6 183.8 410.9 183.7 410.4 183.8 409.9 183.9 409.6 184.5 409.6 185.2L413.3 196.9 407.4 195.5 405.6 189.8C405.5 189.1 404.9 188.7 404.2 189 403.7 189.1 403.3 189.7 403.6 190.5L404.8 194.9 397.2 193.1C396.6 192.9 396 193.3 395.9 193.9S396 195.1 396.7 195.2L404.3 197.1 401.2 200.5C400.6 201 400.7 201.7 401.1 202 401.6 202.6 402.3 202.6 402.7 202L406.9 197.7 412.8 199.1 404.3 207.8C403.9 208.4 404 209.2 404.3 209.5 404.9 210.1 405.6 210 406 209.4L415.2 199.6 424.3 201.8 416.3 208.6 426.7 210 420.3 216.7 407.3 213.6C406.6 213.5 406 214 405.9 214.4 405.8 215.1 406.1 215.6 406.7 215.8L418.7 218.6 414.4 223.1 408.6 221.7C407.9 221.6 407.4 221.9 407.2 222.6 407.1 223 407.4 223.8 408 223.9L412.6 225 407.4 230.6C406.8 231.2 406.8 231.9 407.4 232.3 407.8 232.6 408.5 232.7 408.8 232.1L414.3 226.5 415.8 231C415.9 231.5 416.5 231.9 417 231.8 417.5 231.7 417.8 231.3 417.8 231.1 417.9 230.8 417.9 230.6 417.8 230.4L416.1 224.7 420.2 220.1 423.6 232C423.9 232.5 424.5 232.9 425 232.8 425.5 232.6 425.8 232.3 425.9 231.8 426 231.6 426 231.6 425.8 231.3L422 218.3 428.4 211.5 430.3 222.1 436.7 213.5 439.4 222.4 430.1 232.4C429.8 232.8 429.7 233.4 430.2 234 430.6 234.3 431.3 234.3 431.8 233.9L440.2 224.9 441.8 230.8 437.8 235.1C437.2 235.4 437.3 236.1 437.8 236.7 438.2 237.1 438.9 237 439.5 236.7L442.6 233.3 444.9 240.7C445 241.4 445.7 241.6 446.4 241.5 446.6 241.3 447 241 447 240.7 447.1 240.5 447.1 240.3 446.9 240L444.8 232.6 449.4 233.7C450 233.9 450.6 233.3 450.7 232.9L450.7 232.9C450.9 232.2 450.5 231.7 449.9 231.5L444 230.2 442.4 224.3 454.2 227.1C454.8 227.2 455.4 226.9 455.5 226.2S455.3 225 454.7 224.9L441.6 221.8 438.9 212.9 448.9 216.4 444.8 206.7 453.9 208.8 457.7 221.7C458 222.5 458.7 222.6 459.2 222.5 459.6 222.4 460 221.8 459.9 221.1L456.5 209.5 462.2 210.8 464 216.5C464.1 217.2 464.7 217.6 465.4 217.3 465.9 217.2 466.3 216.6 466.2 215.9L464.8 211.4 472.4 213.2C473 213.4 473.6 213 473.7 212.4S473.5 211.2 472.9 211.1L465.3 209.2 468.4 205.8C468.7 205.7 468.7 205.5 468.8 205.2 468.9 204.8 468.7 204.5 468.5 204.3 468 203.7 467.3 203.7 466.9 204.3L462.7 208.6 456.8 207.2 465.3 198.5C465.4 198.2 465.4 198 465.5 197.8 465.6 197.4 465.4 197.1 465.2 196.8 464.7 196.2 464 196.3 463.6 196.9L454.4 206.7 445.3 204.5 453.3 197.7 442.8 196.3 449.3 189.6 462.3 192.7C463 192.8 463.6 192.3 463.7 191.9 463.8 191.2 463.5 190.7 462.8 190.5L451.1 187.7 455.2 183.2 461 184.6C461.7 184.7 462.2 184.4 462.4 183.7S462.2 182.5 461.6 182.4L457 181.3 462.2 175.7C462.5 175.5 462.6 175.3 462.6 175.1 462.7 174.8 462.5 174.4 462.2 174 461.8 173.7 461.1 173.6 460.7 174.2ZM448.1 199.2L441.5 204.8 444.9 212.7 436.7 209.8 431.6 216.6 429.9 208.2 421.4 207.1 428.1 201.5 424.6 193.6 432.7 196.5 438 189.7 439.5 198.1 448.1 199.2Z" fill="rgba(66, 68, 90, 0.56)"></path>
        <path d="M370.8 243.9L364.2 248 363.8 243.3C363.8 242.8 363.3 242.3 362.6 242.2 362 242.4 361.5 242.9 361.7 243.5L361.9 249.4 356.9 252.8 356.4 240.5C356.3 239.9 355.8 239.4 355.3 239.4 354.5 239.5 354 240 354.1 240.6L354.7 254.2 346.8 259.2 347.6 248.5 339.3 255.3 338.8 246 350.2 238.5C350.4 238.7 350.5 238.5 350.6 238.3 350.8 237.9 350.8 237.4 350.5 237 350.2 236.5 349.5 236.4 348.9 236.6L338.6 243.4 338.5 237.3 343.4 234.1C343.7 234 343.8 233.8 343.9 233.6 344 233.4 344 232.9 343.7 232.5 343.4 232.1 342.7 232 342.3 232.3L338.3 234.7 337.8 226.9C337.9 226.2 337.3 225.9 336.6 225.8 336.1 225.8 335.6 226.3 335.7 227.1L336 234.8 331.8 232.7C331.2 232.3 330.5 232.7 330.3 233.1 330 233.7 330.2 234.3 330.8 234.6L336.2 237.4 336.3 243.5 325.6 238C325 237.7 324.4 237.9 324.1 238.5 323.9 238.9 324 239.7 324.6 240L336.5 246.1 337 255.4 328.2 249.6 329.8 260 321.5 255.7 320.8 242.3C320.7 241.5 320.1 241.2 319.6 241.2 319.1 241.2 318.6 241.7 318.5 242.4L319.3 254.6 313.9 251.9 313.5 245.8C313.6 245.1 313.1 244.6 312.3 244.7 311.8 244.7 311.3 245.2 311.4 246L311.5 250.6 304.6 247.1C304 246.7 303.4 246.9 303.1 247.5S303 248.7 303.6 249L310.5 252.6 306.7 255.2C306 255.6 305.9 256.3 306.2 256.7 306.6 257.4 307.3 257.5 307.8 257L312.9 253.8 318.3 256.6 307.9 263.1C307.4 263.6 307.3 264.3 307.6 264.7 308 265.4 308.7 265.5 309.2 265L320.5 257.7 328.8 262 319.4 266.7 329.2 270.5 321.4 275.5 309.4 269.4C308.8 269.1 308.1 269.5 307.9 269.9 307.6 270.5 307.8 271.1 308.4 271.4L319.4 277 314.1 280.3 308.7 277.6C308.2 277.3 307.6 277.5 307.2 278.1 307 278.5 307.1 279.3 307.7 279.6L311.9 281.7 305.5 286C304.8 286.3 304.6 287 305.1 287.5 305.4 288 306 288.3 306.5 287.8L313.2 283.6 313.5 288.3C313.5 288.8 314 289.3 314.5 289.4 315 289.4 315.4 289.1 315.5 288.9 315.6 288.7 315.7 288.5 315.6 288.2L315.4 282.3 320.4 278.8 320.9 291.1C321.1 291.7 321.6 292.2 322.1 292.2 322.6 292.2 323 291.9 323.2 291.5 323.3 291.3 323.3 291.3 323.2 291L322.6 277.4 330.5 272.4 329.8 283.1 338.1 276.3 338.6 285.6 327.2 293.1C326.8 293.4 326.5 294 326.9 294.7 327.2 295.1 327.9 295.2 328.5 295L338.7 288.2 338.9 294.3 333.9 297.6C333.3 297.8 333.2 298.5 333.6 299.2 333.9 299.6 334.6 299.7 335.2 299.5L339 296.9 339.5 304.7C339.4 305.4 340 305.7 340.7 305.8 341 305.7 341.4 305.4 341.5 305.2 341.6 305 341.7 304.8 341.6 304.5L341.3 296.8 345.5 299C346.1 299.3 346.8 298.9 347 298.5L347 298.5C347.3 297.9 347.1 297.3 346.5 297L341.2 294.2 341 288.1 351.8 293.7C352.4 294 353 293.8 353.3 293.2S353.4 292 352.8 291.7L340.9 285.5 340.4 276.2 349.2 282 347.5 271.6 355.9 275.9 356.5 289.3C356.6 290.1 357.2 290.4 357.7 290.4 358.2 290.4 358.7 289.9 358.8 289.2L358.2 277.1 363.4 279.8 363.9 285.8C363.7 286.5 364.2 287 365 286.9 365.5 286.9 366 286.4 366.2 285.7L365.8 281 372.8 284.6C373.4 284.9 374 284.7 374.3 284.1S374.4 282.9 373.8 282.6L366.8 279 370.7 276.5C371 276.4 371.1 276.2 371.2 276 371.4 275.6 371.3 275.3 371.2 275 370.8 274.3 370.1 274.2 369.6 274.7L364.4 277.8 359.1 275 369.4 268.6C369.5 268.4 369.6 268.2 369.7 268 369.9 267.6 369.9 267.3 369.8 267 369.4 266.3 368.7 266.1 368.2 266.6L356.9 273.9 348.5 269.6 358 264.9 348.1 261.1 356 256.1 367.9 262.2C368.5 262.5 369.2 262.2 369.4 261.8 369.7 261.2 369.5 260.6 368.9 260.3L358.2 254.7 363.2 251.3 368.6 254C369.2 254.4 369.8 254.2 370.1 253.6S370.2 252.4 369.6 252.1L365.4 249.9 371.9 245.7C372.2 245.6 372.3 245.4 372.4 245.2 372.5 245 372.5 244.5 372.2 244.1 371.9 243.7 371.3 243.4 370.8 243.9ZM352.6 265.2L344.8 269 346.2 277.5 338.9 272.7 332.3 278.1 332.7 269.6 324.8 266.5 332.5 262.7 331.1 254.1 338.2 258.8 345 253.5 344.4 262 352.6 265.2Z" fill="rgba(59, 72, 145, 0.28)"></path>
        <path d="M288.5-7.3L295-1.2 295 2.1 292.8 0C292.6-0.3 292.3-0.2 292 0 291.9 0.2 291.8 0.6 292.1 0.7L295 3.6 295.1 6.8 292.3 5.2 291.2 1.2C291.2 1.2 291.1 1.1 291.1 1.1 291 0.9 290.7 0.9 290.5 0.9 290.2 1.1 290 1.3 290.1 1.6L291 4.5 288.2 2.9 285.6-5.6C285.6-5.6 285.7-5.7 285.7-5.7 285.5-5.9 285.2-6 285-6 284.6-5.9 284.5-5.5 284.7-5.3L286.8 2.2 283.4 0.4 282.4-3C282.4-3 282.4-3 282.3-3.1 282.2-3.3 282-3.4 281.7-3.4 281.5-3.2 281.2-2.9 281.3-2.6L282-0.4 279.5-1.7C279.2-2 278.9-1.8 278.8-1.6 278.6-1.3 278.6-1 279-0.8L281.4 0.6 279.3 1.1C279 1.3 278.7 1.6 278.9 1.9 279 2.2 279.2 2.4 279.5 2.3L282.9 1.3 286.2 3.2 278.7 5.4C278.4 5.4 278.3 5.8 278.4 6.1 278.5 6.3 278.7 6.6 279.1 6.5L287.6 3.9 290.4 5.5 287.5 6.3C287.2 6.4 287.1 6.7 287.2 7.1 287.2 7.3 287.5 7.5 287.8 7.5L291.8 6.2 294.6 7.8 291.9 9.4 287.9 8.5C287.6 8.4 287.3 8.6 287.2 8.9 287.1 9.1 287.3 9.5 287.6 9.5L290.5 10.3 287.8 11.9 279.1 9.7C278.8 9.7 278.5 9.8 278.4 10.1 278.4 10.4 278.5 10.7 278.8 10.8L286.4 12.7 283.2 14.7 279.8 13.9C279.5 13.8 279.2 14 279.1 14.3 279 14.6 279.2 14.9 279.5 15L281.7 15.6 279.3 17C279.1 17.2 279 17.5 279.2 17.8 279.3 18.1 279.6 18.2 279.9 18L282.3 16.5 281.8 18.7C281.7 19 281.9 19.3 282.2 19.4S282.8 19.3 282.9 19L283.6 15.7 287 13.7 285.1 21.2C285.1 21.5 285.2 21.8 285.6 21.9 285.9 22 286.1 21.8 286.2 21.5L288.3 12.9 291.1 11.2 290.4 14.1C290.3 14.4 290.5 14.7 290.8 14.8 291.1 14.9 291.4 14.7 291.5 14.4L292.4 10.4 295.1 8.8 295.2 11.9 292.3 14.9C292.2 15.1 292.2 15.5 292.4 15.7 292.6 15.9 292.9 15.9 293.2 15.7L295.3 13.5 295.3 16.6 289.2 23.1C288.9 23.4 289 23.6 289.1 23.9 289.4 24.1 289.7 24.1 289.9 23.9L295.4 18.3 295.4 22.2 293.1 24.6C292.8 24.8 292.9 25.2 293.1 25.4 293.3 25.6 293.7 25.6 293.9 25.3L295.4 23.8 295.6 26.6C295.5 26.9 295.8 27.1 296.2 27.1 296.4 27.1 296.6 26.8 296.6 26.6L296.6 23.7 298.2 25.3C298.5 25.6 298.8 25.5 299 25.3 299.3 25.1 299.2 24.8 299.1 24.7 299.1 24.6 299.1 24.6 299 24.5L296.6 22.2 296.5 18.2 302.1 23.6C302.3 23.9 302.7 23.8 302.9 23.6 303.1 23.4 303.1 23.2 302.9 23 302.9 22.9 302.9 22.9 302.9 22.9L296.5 16.6 296.4 13.5 298.6 15.6C298.8 15.8 299.1 15.8 299.4 15.6 299.5 15.4 299.6 15.1 299.5 14.9 299.4 14.8 299.4 14.8 299.4 14.7L296.3 11.8 296.3 8.7 299 10.2 300.2 14.2C300.3 14.5 300.7 14.7 300.9 14.7 301.2 14.5 301.4 14.2 301.3 14L300.4 11.1 303.2 12.5 305.8 21.2C305.8 21.4 306.1 21.6 306.4 21.6 306.7 21.4 306.9 21.1 306.8 20.8L304.7 13.3 308 15.2 308.9 18.4C309 18.8 309.4 19 309.7 18.8 309.9 18.8 310.2 18.5 310.1 18.1L309.4 15.9 311.9 17.3C312.1 17.4 312.5 17.4 312.7 17.1 312.7 16.9 312.7 16.7 312.6 16.5 312.6 16.5 312.5 16.4 312.5 16.3L310 14.9 312.2 14.3C312.4 14.2 312.6 13.9 312.6 13.6 312.5 13.5 312.5 13.5 312.5 13.5 312.3 13.3 312 13.2 311.8 13.3L308.6 14.2 305.1 12.4 312.7 10.2C313 10 313.1 9.8 313 9.4 313 9.4 313 9.3 313 9.3 312.9 9.1 312.6 9 312.3 9.1L303.7 11.5 301 10.1 303.9 9.2C304.2 9 304.4 8.8 304.2 8.5 304.3 8.4 304.3 8.3 304.3 8.3 304.1 8.1 303.8 8.1 303.6 8.1L299.6 9.3 296.8 7.7 299.5 6.1 303.5 7.1C303.8 7.2 304.2 6.9 304.3 6.6 304.3 6.4 304.1 6.1 303.9 6L300.9 5.3 303.6 3.6 312.2 5.7C312.5 5.8 312.8 5.6 312.9 5.3 313 5 312.8 4.7 312.5 4.7L305 2.8 308.3 0.8 311.5 1.6C311.8 1.7 312.1 1.5 312.2 1.2S312.1 0.6 311.8 0.5L309.7 0 312-1.5C312.3-1.6 312.4-2 312.2-2.2 312.1-2.5 311.7-2.6 311.5-2.4L309.1-1 309.5-3.2C309.6-3.4 309.6-3.5 309.6-3.6 309.5-3.7 309.3-3.9 309.1-3.9 308.8-4 308.5-3.8 308.5-3.5L307.7-0.2 304.4 1.9 306.2-5.8C306.2-5.9 306.3-6.1 306.2-6.2 306.1-6.3 305.9-6.4 305.8-6.4 305.5-6.5 305.2-6.3 305.1-6L303 2.7 300.3 4.4 301.1 1.4C301.1 1.2 301 1 301 0.9 300.9 0.8 300.8 0.7 300.7 0.7 300.4 0.6 300 0.9 300 1.1L298.9 5.2 296.3 6.8 296.2 3.6 299.1 0.6C299.2 0.4 299.3 0.1 299.2-0.1 299.1-0.2 299.1-0.2 299-0.1 298.8-0.4 298.4-0.4 298.2-0.1L296.1 2 296-1.2 302.3-7.6C302.4-7.8 302.4-8.1 302.3-8.3 302.3-8.3 302.3-8.3 302.3-8.3 302-8.6 301.7-8.7 301.4-8.4L296-2.7 296-6.6 298.3-9.1C298.5-9.3 298.5-9.6 298.4-9.8 298.4-9.8 298.3-9.9 298.3-9.9 298-10.1 297.7-10 297.5-9.9L295.9-8.2 295.9-11C295.9-11.1 295.8-11.2 295.7-11.3 295.7-11.4 295.5-11.6 295.3-11.6 295-11.5 294.7-11.3 294.8-11L294.8-8.1 293.2-9.8C292.9-10 292.5-9.9 292.4-9.8 292.1-9.5 292.2-9.2 292.4-8.9L294.8-6.6 294.9-2.7 289.3-8.1C289.1-8.3 288.7-8.3 288.5-8.1 288.3-7.9 288.2-7.6 288.5-7.3Z" fill="rgba(59, 72, 145, 0.28)"></path>
        <path d="M147.6 286.6L144 269.2 147.7 263.8 148.9 269.7C148.9 270.4 149.5 270.6 150.2 270.7 150.6 270.5 151.1 269.8 150.9 269.4L149.4 261.2 152.9 255.8 155.7 261.6 153 269.5C153 269.5 152.9 269.7 152.9 269.7 152.9 270.2 153.3 270.6 153.8 270.9 154.4 270.9 154.9 270.7 155.2 270.1L157.1 264.4 159.9 270.2 154.3 287.1C154.3 287.1 154.1 287.3 154.1 287.3 154 287.7 154.5 288.2 154.9 288.4 155.5 288.7 156.2 288.3 156.3 287.6L161.2 272.9 164.8 279.9 162.6 286.5C162.6 286.5 162.6 286.5 162.6 286.7 162.6 287.1 162.8 287.6 163.2 287.8 163.9 287.9 164.6 287.7 164.8 287.1L166.2 282.7 168.8 287.8C169 288.4 169.7 288.5 170.1 288.3 170.8 288.1 171.1 287.4 170.7 286.8L168.3 281.7 172.5 283.3C173.1 283.3 173.8 283.1 173.9 282.5 174.1 281.8 173.9 281.4 173.3 281.1L166.7 278.9 163.3 271.9 178.2 276.9C178.7 277.2 179.4 276.8 179.6 276.1 179.7 275.7 179.5 275 178.8 274.7L161.9 269.2 159.2 263.4 164.9 265.3C165.5 265.6 166 265.2 166.3 264.5 166.5 264.1 166.1 263.4 165.7 263.1L157.8 260.6 154.8 254.8 161.2 255.2 166.7 261.4C167.1 261.9 167.8 261.9 168.2 261.5 168.7 261.3 168.8 260.4 168.3 259.9L164.4 255.4 170.8 255.8 182.5 269.4C182.9 269.8 183.6 269.9 184.1 269.5 184.6 269 184.6 268.4 184.2 267.9L174 256 181.6 256.5 186.1 261.7C186.6 262.2 187.2 262.3 187.7 261.8 188.2 261.4 188.2 260.8 187.8 260.3L184.9 256.7 190.5 257.1C191.1 257.1 191.6 256.7 191.7 256.1 191.7 255.4 191.3 254.9 190.6 254.9L185 254.5 188.4 251.6C188.8 251.2 188.9 250.5 188.5 250S187.4 249.5 186.9 249.9L181.9 254.3 174.1 253.8 185.7 243.6C186.2 243.2 186.2 242.5 185.8 242 185.4 241.5 184.7 241.5 184.3 241.9L171 253.6 164.5 253.2 169 249.2C169.5 248.8 169.5 248.2 169.1 247.7 168.7 247.2 168 247.2 167.6 247.6L161.4 253 155.1 252.6 158.6 247.5 166.8 245.7C167.2 245.5 167.7 244.9 167.5 244.4 167.4 243.8 166.9 243.5 166.3 243.5L160.4 244.7 163.8 239.5 181.3 235.9C182 235.7 182.2 235.3 182.3 234.6 182.1 233.9 181.4 233.7 181 233.6L165.6 236.7 170 230.3 176.6 228.9C177.3 228.9 177.5 228.3 177.6 227.6 177.4 227.1 176.7 226.7 176 226.8L171.7 227.7 174.7 222.9C175.2 222.5 175 221.8 174.4 221.4 173.9 221.1 173.3 221.3 173 221.7L169.8 226.4 169 221.9C168.8 221.2 168.1 221 167.7 221.2 167 221.1 166.7 221.5 166.7 222 166.7 222.2 166.7 222.2 166.7 222.4L168.1 229 163.6 235.5 160.6 220.3C160.6 219.6 159.9 219.3 159.3 219.3 158.8 219.5 158.6 219.9 158.5 220.3 158.5 220.6 158.5 220.6 158.5 220.6L161.9 238.3 158.4 243.4 157.2 237.5C157 236.8 156.6 236.6 155.9 236.5 155.5 236.7 155 237.1 155 237.6 155 237.8 155 237.8 154.9 238L156.7 246.2 153.2 251.4 150.4 245.8 152.9 237.9C153.2 237.3 152.8 236.6 152.4 236.3 151.7 236.3 151 236.4 151 237.1L149 242.8 146 237.3 151.8 220.1C152.1 219.7 151.7 219 151.2 218.8 150.6 218.7 149.9 218.9 149.6 219.6L144.7 234.3 141.3 227.3 143.5 221C143.8 220.3 143.3 219.6 142.7 219.6 142.2 219.3 141.6 219.5 141.3 220.2L139.9 224.5 137.3 219.4C137.1 219 136.5 218.7 135.8 218.9 135.5 219.1 135.3 219.5 135.3 220 135.3 220 135.2 220.2 135.2 220.4L137.8 225.5 133.4 224.1C133 223.9 132.3 224.3 132 224.7 132 224.9 132 224.9 132 224.9 132 225.6 132.4 226.1 132.9 226.1L139.2 228.3 142.8 235.3 127.9 230.3C127.2 230.2 126.8 230.4 126.5 231.1 126.5 231.1 126.5 231.3 126.5 231.3 126.4 231.8 126.6 232.2 127.3 232.5L144.2 238.3 147 243.8 141.3 241.9C140.6 241.8 139.9 242 139.9 242.7 139.6 242.7 139.6 242.9 139.6 242.9 139.6 243.3 140 243.8 140.5 244.1L148.4 246.6 151.1 252.4 144.9 252 139.4 245.8C139 245.3 138.1 245.3 137.7 245.7 137.4 246.1 137.4 246.8 137.6 247.2L141.8 251.8 135.3 251.4 123.6 238.1C123.2 237.6 122.5 237.6 122 238 121.5 238.4 121.5 239.1 121.9 239.5L132.2 251.2 124.4 250.7 120 245.7C119.5 245.2 118.9 245.2 118.4 245.6S117.9 246.7 118.3 247.1L121.2 250.5 115.7 250.1C115 250.1 114.5 250.5 114.5 251.2 114.4 251.8 114.8 252.3 115.5 252.3L121.1 252.7 117.8 255.8C117.5 256.1 117.3 256.3 117.3 256.5 117.3 256.7 117.4 257.2 117.7 257.4 118.1 257.9 118.7 257.9 119.2 257.5L124.2 252.9 132 253.4 120.4 263.8C120.1 264.1 119.9 264.3 119.9 264.5 119.9 264.7 120.1 265.2 120.3 265.4 120.7 265.9 121.4 265.9 121.8 265.5L135.1 253.6 141.6 254 136.9 258C136.6 258.2 136.6 258.6 136.6 258.8 136.6 259.1 136.6 259.3 136.8 259.5 137.2 260 138.1 260 138.3 259.6L144.7 254.2 151 254.6 147.5 260 139.3 261.5C138.9 261.7 138.4 262.1 138.4 262.5 138.4 262.8 138.4 262.8 138.6 262.8 138.6 263.4 139.2 263.9 139.9 263.7L145.8 262.5 142.3 267.9 124.6 271.3C124.2 271.5 123.9 271.9 123.9 272.4 123.9 272.6 123.9 272.6 123.9 272.6 124 273.3 124.5 273.7 125.1 273.6L140.6 270.5 136.1 276.9 129.5 278.3C128.9 278.5 128.6 278.9 128.6 279.4 128.6 279.4 128.6 279.6 128.6 279.6 128.7 280.3 129.4 280.5 129.8 280.6L134.4 279.5 131.2 284.2C131.2 284.5 131.2 284.7 131.1 284.9 131.1 285.1 131.3 285.6 131.5 285.8 132.2 286.1 132.9 286.1 133.1 285.5L136.3 280.8 137.2 285.3C137.3 286 138 286.2 138.4 286.3 139.1 286.1 139.4 285.4 139.4 284.8L138.1 278.2 142.3 271.7 145.3 286.9C145.5 287.6 146.2 288.1 146.6 287.9 147.3 287.7 147.8 287.3 147.6 286.6Z" fill="rgba(59, 72, 145, 0.28)"></path>
        <path d="M434.7 16.1L448.1 16.8 451.3 20.5 446.8 20.3C446.3 20.1 446 20.5 445.8 21 445.9 21.4 446.2 21.9 446.6 21.8L452.8 22.3 456 25.8 451.3 26.7 446.1 23.2C446.1 23.2 446 23.2 446 23.2 445.7 23.1 445.2 23.3 445 23.6 444.8 24 444.9 24.4 445.3 24.7L449.1 27.2 444.3 28.1 433.1 20.9C433.1 20.9 433 20.7 433 20.7 432.7 20.6 432.3 20.8 432 21 431.7 21.5 431.9 22 432.3 22.2L442.1 28.6 436.3 29.9 432 27C432 27 432 27 431.8 27 431.5 26.9 431.1 26.9 430.9 27.2 430.7 27.7 430.7 28.2 431.1 28.5L434.1 30.4 429.9 31.3C429.3 31.3 429.2 31.7 429.2 32.1 429.2 32.6 429.7 33 430.2 32.8L434.4 32.1 432.4 34.8C432.3 35.2 432.3 35.8 432.7 35.9 433.2 36.3 433.5 36.2 433.8 35.8L436.7 31.4 442.4 30.3 435.9 40.2C435.7 40.4 435.8 41 436.2 41.3 436.6 41.4 437.1 41.4 437.4 41L444.7 29.8 449.4 28.9 446.9 32.7C446.6 33.1 446.8 33.5 447.2 33.8 447.5 34.1 448.1 34 448.3 33.7L451.7 28.4 456.4 27.4 454.9 32 449.4 34.7C449 35 448.8 35.4 449 35.9 449.1 36.2 449.7 36.4 450.1 36.2L454.1 34.2 452.6 38.8 440.6 44.7C440.2 44.9 440 45.4 440.2 45.8 440.4 46.3 440.9 46.4 441.3 46.2L451.9 41.1 450.1 46.5 445.4 48.8C445 49 444.8 49.5 445 49.9 445.3 50.3 445.7 50.5 446.2 50.3L449.3 48.9 448 52.8C447.8 53.3 448 53.7 448.5 53.9 449 54 449.4 53.8 449.6 53.4L450.9 49.4 452.4 52.3C452.6 52.8 453.1 52.9 453.5 52.7S454.1 52 453.9 51.6L451.6 47.2 453.5 41.6 458.7 52C458.9 52.4 459.4 52.6 459.8 52.3 460.2 52.1 460.4 51.6 460.2 51.2L454.2 39.4 455.7 34.7 457.8 38.8C458 39.2 458.5 39.3 458.9 39.1 459.3 38.9 459.5 38.4 459.2 38L456.5 32.5 458 28.1 461 31.6 460.7 37.8C460.8 38.2 461.2 38.7 461.5 38.6 462.1 38.6 462.3 38.3 462.5 37.9L462.7 33.4 465.8 36.8 465.1 50.2C465.1 50.7 465.4 51 465.8 51.2 466.4 51.2 466.7 50.7 466.8 50.4L467.5 38.7 471.3 43.1 471.1 48.1C470.9 48.6 471.3 48.9 471.8 49.1 472.2 49 472.7 48.7 472.7 48.1L472.9 44.8 475.7 47.9C476 48.3 476.5 48.3 477 48 477.2 47.7 477.2 47.2 477 46.9L474.1 43.7 477.6 43.9C478.1 43.9 478.4 43.5 478.4 43.1 478.5 42.7 478.3 42.4 478 42.3 477.8 42.2 477.8 42.2 477.6 42.2L472.6 41.9 468.8 37.5 480.4 38.2C480.9 38.3 481.2 37.9 481.4 37.4 481.3 37 481 36.8 480.7 36.7 480.6 36.6 480.6 36.6 480.6 36.6L467.1 35.7 464 32.2 468.5 32.4C469 32.4 469.3 32.2 469.5 31.7 469.4 31.3 469.2 30.9 468.9 30.8 468.7 30.7 468.7 30.7 468.6 30.7L462.3 30.4 459.2 26.9 463.8 25.9 469 29.3C469.5 29.6 470.1 29.4 470.3 29.2 470.5 28.7 470.5 28.1 470 28L466.2 25.5 470.8 24.4 482.1 31.8C482.4 32.1 483 32 483.3 31.7 483.4 31.2 483.4 30.7 483 30.4L473.3 24 479 22.8 483.1 25.6C483.6 26 484.1 25.8 484.3 25.3 484.6 25.1 484.6 24.5 484.1 24.2L481.2 22.4 485.4 21.5C485.8 21.4 486.1 21 486.1 20.4 486 20.2 485.7 20 485.4 19.9 485.4 19.9 485.3 19.8 485.1 19.8L480.9 20.7 482.8 17.7C483 17.5 482.9 16.9 482.6 16.6 482.4 16.6 482.4 16.6 482.4 16.6 482 16.4 481.5 16.6 481.4 16.9L478.6 21.1 472.9 22.4 479.4 12.6C479.5 12.1 479.5 11.7 479 11.4 479 11.4 478.9 11.3 478.9 11.3 478.6 11.2 478.2 11.3 477.9 11.7L470.5 22.8 465.9 23.8 468.4 20C468.6 19.6 468.6 19 468.1 18.9 468.1 18.7 468 18.7 468 18.7 467.7 18.6 467.2 18.8 467 19L463.6 24.3 458.9 25.2 460.4 20.7 465.9 18C466.3 17.8 466.5 17.1 466.3 16.7 466.1 16.4 465.6 16.3 465.2 16.3L461.1 18.5 462.7 13.9 474.5 7.9C475 7.7 475.1 7.3 474.9 6.8 474.7 6.4 474.2 6.2 473.8 6.5L463.4 11.7 465.3 6.1 469.7 3.9C470.1 3.7 470.3 3.2 470.1 2.8S469.4 2.2 469 2.4L466 3.9 467.3-0.1C467.5-0.6 467.3-1 466.8-1.2 466.3-1.3 465.9-1.1 465.7-0.6L464.4 3.3 462.8 0.3C462.6 0.1 462.5-0.1 462.4-0.2 462.2-0.2 461.9-0.2 461.6 0 461.2 0.2 461.1 0.6 461.3 1.1L463.7 5.6 461.8 11.1 456.4 0.7C456.3 0.5 456.2 0.3 456.1 0.2 455.9 0.2 455.5 0.2 455.3 0.3 454.9 0.5 454.7 1 455 1.4L461.1 13.4 459.5 18 457.6 13.8C457.5 13.6 457.1 13.5 457 13.4 456.8 13.4 456.7 13.3 456.5 13.4 456 13.6 455.8 14.3 456.1 14.5L458.8 20.2 457.3 24.7 454.1 21.1 454.6 14.9C454.5 14.5 454.3 14.1 454 14 453.8 14 453.8 14 453.8 14.1 453.3 14 452.8 14.3 452.8 14.9L452.5 19.4 449.3 15.8 450.2 2.4C450.2 2 449.9 1.7 449.6 1.6 449.4 1.6 449.4 1.6 449.4 1.6 448.9 1.6 448.5 1.8 448.5 2.3L447.8 14.1 443.9 9.6 444.2 4.6C444.2 4.1 443.9 3.8 443.6 3.7 443.6 3.7 443.5 3.6 443.5 3.6 442.9 3.6 442.6 4.1 442.5 4.4L442.4 7.9 439.6 4.6C439.4 4.6 439.3 4.5 439.1 4.5 439 4.4 438.6 4.5 438.4 4.6 438.1 5 437.9 5.5 438.3 5.8L441.1 9 437.7 8.8C437.2 8.8 436.8 9.2 436.7 9.5 436.7 10.1 437.2 10.4 437.6 10.5L442.7 10.8 446.5 15.1 434.9 14.4C434.4 14.4 433.9 14.8 434 15.1 434 15.7 434.2 16.1 434.7 16.1Z" fill="rgba(66, 68, 90, 0.56)"></path>
        <path d="M247.5 229.1L240.7 212.5 243.4 206.6 245.6 212.2C245.7 212.8 246.4 213 247.1 212.9 247.5 212.6 247.8 211.9 247.6 211.5L244.6 203.7 247 197.8 250.8 203 249.6 211.2C249.6 211.2 249.6 211.4 249.6 211.4 249.6 211.9 250.1 212.3 250.6 212.4 251.3 212.4 251.7 212.1 251.8 211.4L252.7 205.4 256.5 210.6 254.1 228.2C254.1 228.2 254 228.5 254 228.5 254 228.9 254.5 229.3 255 229.5 255.7 229.6 256.3 229.1 256.2 228.4L258.4 213.1 263.2 219.2 262.2 226.1C262.2 226.1 262.2 226.1 262.2 226.3 262.3 226.8 262.6 227.2 263 227.4 263.7 227.3 264.4 227 264.5 226.3L265.1 221.7 268.5 226.2C268.8 226.9 269.5 226.8 269.9 226.5 270.6 226.2 270.7 225.5 270.2 224.9L266.9 220.3 271.3 221.2C272 221.1 272.6 220.8 272.5 220.1 272.7 219.4 272.4 219 271.7 218.9L264.8 217.9 260.2 211.7 275.8 213.8C276.3 214 276.9 213.5 277 212.8 277 212.3 276.7 211.7 276 211.6L258.3 209.2 254.5 204.1 260.5 204.9C261.2 205.1 261.6 204.6 261.7 203.9 261.9 203.4 261.4 202.8 260.9 202.6L252.7 201.6 248.6 196.5 255.1 195.7 261.6 200.7C262.1 201.1 262.7 201 263.1 200.5 263.5 200.3 263.4 199.4 262.9 199L258.2 195.3 264.6 194.5 278.6 205.6C279.1 206 279.8 205.9 280.2 205.4 280.5 204.9 280.5 204.3 280 203.9L267.7 194.1 275.3 193.2 280.8 197.5C281.3 197.9 281.9 197.8 282.3 197.3 282.7 196.8 282.6 196.1 282.1 195.7L278.6 192.8 284.1 192.1C284.8 192 285.2 191.5 285.1 190.8 285 190.2 284.5 189.8 283.9 189.9L278.3 190.6 281 187.1C281.4 186.6 281.4 185.9 280.9 185.5S279.7 185.2 279.3 185.7L275.2 190.9 267.5 191.9 277 179.7C277.4 179.2 277.3 178.5 276.8 178.1 276.3 177.7 275.6 177.8 275.2 178.3L264.3 192.3 257.9 193.1 261.6 188.3C262 187.8 261.9 187.2 261.4 186.8 260.9 186.4 260.3 186.5 259.9 187L254.8 193.5 248.6 194.2 251 188.5 258.8 185.3C259.2 185 259.5 184.3 259.3 183.9 259 183.3 258.5 183.1 257.8 183.2L252.2 185.4 254.7 179.7 271.2 173C271.8 172.7 272 172.2 271.9 171.5 271.6 170.9 270.9 170.7 270.5 170.8L255.9 176.7 259.1 169.5 265.3 166.9C265.9 166.9 266.1 166.2 266 165.5 265.7 165.1 265 164.7 264.4 165L260.3 166.7 262.3 161.4C262.7 160.9 262.4 160.3 261.7 159.9 261.2 159.8 260.6 160.1 260.4 160.6L258.1 165.8 256.5 161.5C256.2 160.9 255.5 160.7 255.1 161 254.4 161.1 254.2 161.5 254.3 162 254.3 162.2 254.3 162.2 254.4 162.4L256.9 168.6 253.8 175.8 247.9 161.4C247.8 160.8 247.1 160.6 246.5 160.7 246.1 161 245.9 161.4 246 161.9 246 162.1 246 162.1 246 162.1L252.6 178.9 250.1 184.6 247.8 179C247.5 178.4 247.1 178.2 246.4 178.3 246 178.6 245.6 179.1 245.6 179.5 245.7 179.7 245.7 179.7 245.7 179.9L248.9 187.7 246.5 193.4 242.7 188.4 243.7 180.2C243.8 179.5 243.3 178.9 242.8 178.7 242.2 178.8 241.5 179.1 241.6 179.8L240.8 185.7 236.8 180.8 239.3 162.9C239.5 162.5 239 161.9 238.5 161.7 237.8 161.8 237.2 162.1 237 162.8L234.9 178.1 230.3 171.9 231.3 165.3C231.4 164.6 230.9 164 230.2 164.1 229.8 163.9 229.1 164.2 229 164.9L228.4 169.5 224.9 164.9C224.7 164.5 224 164.4 223.3 164.7 223.1 164.9 223 165.4 223 165.8 223 165.8 223 166.1 223.1 166.3L226.6 170.8 222 170.3C221.5 170.1 220.9 170.6 220.7 171.1 220.8 171.3 220.8 171.3 220.8 171.3 220.8 172 221.3 172.4 221.8 172.3L228.4 173.3 233.3 179.5 217.7 177.3C217 177.4 216.6 177.7 216.5 178.4 216.5 178.4 216.5 178.6 216.5 178.6 216.5 179 216.8 179.5 217.5 179.6L235.2 182.1 238.9 187.1 233 186.2C232.3 186.3 231.7 186.6 231.7 187.3 231.5 187.3 231.6 187.5 231.6 187.5 231.6 188 232.1 188.4 232.6 188.5L240.8 189.6 244.6 194.7 238.4 195.5 231.9 190.4C231.4 190 230.5 190.2 230.1 190.6 230 191.1 230 191.8 230.3 192.2L235.3 195.9 228.8 196.7 214.9 185.8C214.4 185.4 213.7 185.5 213.3 186 212.9 186.5 213 187.1 213.5 187.5L225.7 197 218 198 212.7 193.9C212.2 193.5 211.6 193.6 211.2 194.1S210.9 195.3 211.4 195.7L214.9 198.4 209.3 199.1C208.7 199.2 208.3 199.7 208.4 200.3 208.4 201 208.9 201.4 209.6 201.3L215.1 200.6 212.4 204.3C212.3 204.6 212.1 204.8 212.1 205 212.1 205.3 212.4 205.7 212.6 205.9 213.1 206.3 213.8 206.2 214.2 205.7L218.2 200.2 226 199.3 216.5 211.7C216.3 212 216.1 212.2 216.2 212.4 216.2 212.6 216.5 213.1 216.7 213.3 217.2 213.6 217.9 213.6 218.3 213.1L229.1 198.9 235.6 198.1 231.6 202.9C231.4 203.1 231.5 203.5 231.5 203.8 231.6 204 231.6 204.2 231.8 204.4 232.3 204.8 233.2 204.7 233.4 204.2L238.7 197.7 244.9 196.9 242.5 202.9 234.7 205.9C234.3 206.1 233.9 206.6 234 207.1 234 207.3 234 207.3 234.2 207.3 234.3 207.9 235 208.3 235.7 208L241.2 205.7 238.8 211.7 222 218.2C221.6 218.5 221.5 219 221.5 219.4 221.5 219.6 221.5 219.6 221.5 219.6 221.9 220.3 222.4 220.7 223 220.4L237.6 214.5 234.4 221.7 228.2 224.2C227.6 224.5 227.4 225 227.4 225.4 227.4 225.4 227.5 225.7 227.5 225.7 227.8 226.3 228.5 226.4 228.9 226.4L233.2 224.5 230.9 229.7C230.9 230 231 230.2 231 230.4 231 230.6 231.3 231.1 231.5 231.2 232.2 231.4 232.9 231.3 233 230.6L235.3 225.4 237 229.7C237.3 230.3 238 230.5 238.4 230.4 239.1 230.1 239.2 229.4 239.1 228.7L236.5 222.5 239.5 215.4 245.3 229.8C245.6 230.4 246.3 230.8 246.8 230.5 247.4 230.2 247.8 229.7 247.5 229.1Z" fill="rgba(59, 72, 145, 0.28)"></path>
    </g>
    <defs>
        <mask id="SvgjsMask1036">
            <rect width="503" height="331" fill="#ffffff"></rect>
        </mask>
        <filter id="SvgjsFilter1037">
            <feGaussianBlur stdDeviation="1"></feGaussianBlur>
        </filter>
    </defs>
</svg>