<svg xmlns="http://www.w3.org/2000/svg" version="1.1" xmlns:xlink="http://www.w3.org/1999/xlink" xmlns:svgjs="http://svgjs.com/svgjs" width="2640" height="700" preserveAspectRatio="none" viewBox="0 0 2640 700">
    <g mask="url(&quot;#SvgjsMask1042&quot;)" fill="none">
        <circle r="9.17" cx="2505.54" cy="163.42" filter="url(#SvgjsFilter1043)" fill="rgba(59, 72, 145, 0.28)"></circle>
        <circle r="10.485" cx="975.9250000000001" cy="149.47500000000002" filter="url(#SvgjsFilter1043)" fill="rgba(59, 72, 145, 0.28)"></circle>
        <circle r="9.9" cx="1325.43" cy="238.82" filter="url(#SvgjsFilter1043)" fill="rgba(66, 68, 90, 0.56)"></circle>
        <circle r="11.445" cx="38.955" cy="218.98499999999999" filter="url(#SvgjsFilter1043)" fill="rgba(66, 68, 90, 0.56)"></circle>
        <circle r="10.525" cx="2129.0750000000003" cy="313.575" filter="url(#SvgjsFilter1043)" fill="rgba(59, 72, 145, 0.28)"></circle>
        <circle r="8.135" cx="1298.115" cy="623.465" filter="url(#SvgjsFilter1043)" fill="rgba(59, 72, 145, 0.28)"></circle>
        <circle r="7.375" cx="2399.685" cy="596.055" filter="url(#SvgjsFilter1043)" fill="rgba(66, 68, 90, 0.56)"></circle>
        <circle r="8.105" cx="2553.085" cy="325.76500000000004" filter="url(#SvgjsFilter1043)" fill="rgba(59, 72, 145, 0.28)"></circle>
        <circle r="10.865" cx="2216.6349999999998" cy="350.895" filter="url(#SvgjsFilter1043)" fill="rgba(59, 72, 145, 0.28)"></circle>
        <circle r="8.315" cx="2560.495" cy="220.695" filter="url(#SvgjsFilter1043)" fill="rgba(66, 68, 90, 0.56)"></circle>
        <circle r="10.745" cx="2013.175" cy="107.095" filter="url(#SvgjsFilter1043)" fill="rgba(59, 72, 145, 0.28)"></circle>
        <circle r="7.575" cx="1952.835" cy="302.505" filter="url(#SvgjsFilter1043)" fill="rgba(59, 72, 145, 0.28)"></circle>
        <circle r="9.69" cx="89.82" cy="336.96999999999997" filter="url(#SvgjsFilter1043)" fill="rgba(66, 68, 90, 0.56)"></circle>
        <circle r="5.86" cx="1202.81" cy="215.18" filter="url(#SvgjsFilter1043)" fill="rgba(59, 72, 145, 0.28)"></circle>
        <circle r="7.71" cx="1717.45" cy="36.03" filter="url(#SvgjsFilter1043)" fill="rgba(66, 68, 90, 0.56)"></circle>
        <circle r="9.435" cx="94.415" cy="642.895" filter="url(#SvgjsFilter1043)" fill="rgba(59, 72, 145, 0.28)"></circle>
        <circle r="7.94" cx="2019.01" cy="98.46" filter="url(#SvgjsFilter1043)" fill="rgba(59, 72, 145, 0.28)"></circle>
        <circle r="11.39" cx="1791.2900000000002" cy="176.48000000000002" filter="url(#SvgjsFilter1043)" fill="rgba(66, 68, 90, 0.56)"></circle>
        <circle r="6.895" cx="176.63500000000002" cy="329.47499999999997" filter="url(#SvgjsFilter1043)" fill="rgba(59, 72, 145, 0.28)"></circle>
        <circle r="8.335" cx="2246.805" cy="340.465" filter="url(#SvgjsFilter1043)" fill="rgba(66, 68, 90, 0.56)"></circle>
        <path d="M1804.4 469.8L1710.9 465.7 1688.3 440 1719.9 441.4C1723.2 442.5 1725.4 439.5 1726.5 436.2 1726.1 433.6 1723.5 430.3 1720.9 430.7L1677.4 427.8 1654.5 403.2 1687.5 396.5 1724.1 420.6C1724.1 420.6 1725.2 421 1725.2 421 1727.5 421.7 1730.4 420.2 1732.2 418.3 1733.3 414.9 1732.9 412.4 1729.9 410.2L1703.4 393 1736.3 386.3 1815.2 436.3C1815.2 436.3 1816 437.8 1816 437.8 1818.2 438.5 1821.1 437 1823 435.1 1825.2 432.1 1824 428 1820.7 426.9L1752.2 382.8 1792.2 373.5 1822.9 393.1C1822.9 393.1 1822.9 393.1 1824 393.5 1826.2 394.2 1828.8 393.8 1830.6 391.9 1831.7 388.6 1831.7 384.9 1828.7 382.7L1808.1 369.9 1837.4 363.3C1841.1 363.3 1842.1 359.9 1841.7 357.3 1841.7 353.6 1838.7 351.4 1834.6 352.6L1805.8 358.1 1819.3 339C1820.3 335.7 1820.3 332 1817 330.9 1814 328.7 1811.4 329.1 1809.2 332.1L1789.5 362.7 1749.9 371 1794.4 301.4C1796.2 299.6 1795 295.5 1792 293.3 1789.8 292.6 1786.1 292.6 1783.9 295.6L1734 374.5 1701 381.2 1718.2 354.6C1720.3 351.6 1718.8 348.7 1715.8 346.5 1714 344.7 1709.9 345.8 1708.1 347.7L1685.1 384.7 1651.8 392.5 1662.2 360.1 1700.5 340.4C1703.5 338.9 1704.6 335.5 1703.1 332.5 1702.7 330 1698.2 328.5 1695.2 330L1667.2 344.5 1677.6 312.1 1761.3 269.9C1764.3 268.4 1765.4 265 1763.8 262.1 1762.3 259.1 1759 258.1 1756 259.6L1682.6 296.4 1694.8 258.4 1727.3 241.7C1730.2 240.2 1731.3 236.9 1729.8 233.9 1728.2 231 1724.9 229.9 1721.9 231.4L1700.2 241.7 1709.1 213.7C1710.2 210.4 1708.7 207.4 1705.3 206.4 1702 205.3 1699 206.8 1697.9 210.2L1689 238.1 1678.4 217.4C1676.8 214.5 1673.5 213.4 1670.5 214.9S1666.5 219.8 1668 222.7L1684 253.7 1671.4 292.8 1634.2 220.5C1632.7 217.6 1629.4 216.5 1626.4 218 1623.5 219.5 1622.4 222.9 1623.9 225.8L1666.4 308.5 1656 340.9 1641.6 312.8C1640.1 309.9 1636.7 308.8 1633.8 310.3 1630.8 311.9 1629.8 315.2 1631.3 318.2L1651 356.5 1641 387.8 1619.2 363.6 1620.9 319.8C1620.5 317.2 1617.9 313.9 1615.3 314.3 1611.6 314.3 1609.7 316.2 1608.7 319.5L1607.2 351.1 1585.4 326.8 1589.5 233.3C1589.4 229.6 1587.6 227.7 1584.2 226.7 1580.5 226.7 1578.3 229.7 1577.6 231.9L1573.3 314.4 1546.3 283.5 1547.7 248.2C1548.8 244.9 1545.8 242.7 1542.5 241.6 1539.9 242 1536.6 244.7 1536.6 248.4L1535.4 271.4 1515.1 250.1C1513.6 247.1 1509.9 247.2 1506.6 249.8 1504.7 251.7 1504.8 255.4 1506.6 257.2L1526.6 279.6 1502.4 278.1C1498.7 278.1 1496.5 281.1 1496.9 283.7 1495.9 287 1497.7 288.9 1500 289.6 1501.1 290 1501.1 290 1502.2 290.3L1537.5 291.8 1564.5 322.6 1483.2 318.7C1479.9 317.7 1477.7 320.7 1476.6 324 1477 326.6 1478.9 328.4 1481.1 329.1 1482.2 329.5 1482.2 329.5 1482.2 329.5L1576.6 335.1 1598.4 359.3 1566.8 357.9C1563.1 357.9 1561.3 359.8 1560.2 363.1 1560.6 365.7 1562.1 368.7 1564.3 369.4 1565.4 369.7 1565.4 369.7 1566.6 370.1L1610.4 371.8 1632.2 396.1 1600.3 403.1 1563.3 380.2C1560.3 378 1556.3 379.1 1554.4 381 1553.4 384.4 1553.4 388.1 1556.8 389.1L1583.3 406.3 1551.1 414.4 1471.5 363C1469.6 361.2 1465.5 362.4 1463.7 364.2 1462.6 367.6 1462.7 371.3 1465.7 373.5L1534.1 417.6 1494.5 425.8 1464.9 406.5C1461.9 404.3 1457.9 405.5 1456.8 408.8 1455 410.7 1455 414.4 1458 416.6L1478.6 429.4 1449.3 436C1446.7 436.4 1444.5 439.4 1444.6 443.1 1445.3 444.6 1447.2 446.4 1449.4 447.1 1449.4 447.1 1450.6 447.5 1451.7 447.9L1480.9 441.2 1468.2 461.8C1466.3 463.6 1467.5 467.7 1469.4 469.5 1470.5 469.9 1470.5 469.9 1470.5 469.9 1473.8 471 1476.8 469.5 1477.5 467.2L1496.8 437.7 1536.8 428.3 1492.3 497.9C1491.3 501.2 1491.7 503.8 1494.6 506 1494.6 506 1495.8 506.3 1495.8 506.3 1498 507.1 1500.6 506.7 1502.8 503.7L1553.8 425.2 1585.7 418.1 1568.5 444.7C1567.5 448 1567.5 451.7 1570.8 452.8 1570.5 453.9 1571.6 454.3 1571.6 454.3 1573.8 455 1576.8 453.5 1578.6 451.6L1601.6 414.6 1634.5 407.9 1624.5 439.2 1586.1 458.9C1583.2 460.5 1581.7 464.9 1583.3 467.9 1585.1 469.7 1588.5 470.8 1591.1 470.4L1619.5 454.8 1609.1 487.2 1526.5 529.7C1523.5 531.3 1522.4 534.6 1524 537.6 1525.5 540.5 1528.8 541.6 1531.8 540.1L1604.1 502.9 1591.5 542 1560.5 557.9C1557.6 559.4 1556.5 562.8 1558 565.8S1562.9 569.8 1565.9 568.3L1586.5 557.6 1577.6 585.6C1576.5 588.9 1578 591.9 1581.4 592.9 1584.7 594 1587.7 592.5 1588.7 589.1L1597.7 561.2 1609.4 582.2C1610.2 583.7 1611 585.2 1612.1 585.5 1613.2 585.9 1615.8 585.5 1617.3 584.7 1620.2 583.2 1621.3 579.9 1619.8 576.9L1602.7 545.6 1615.2 506.5 1653.6 579.1C1654.3 580.6 1655.1 582.1 1656.2 582.4 1657.3 582.8 1659.9 582.4 1661.4 581.6 1664.3 580.1 1665.4 576.8 1663.9 573.8L1620.3 490.8 1630.7 458.4 1644.7 487.6C1645.5 489.1 1647.7 489.8 1648.8 490.1 1649.9 490.5 1651.1 490.8 1652.5 490.1 1655.5 488.6 1656.9 484.1 1655 482.3L1635.7 442.8 1645.7 411.5 1668.6 436.1 1665.8 479.5C1666.2 482.1 1667.7 485.1 1669.9 485.8 1671 486.2 1671 486.2 1671.4 485 1674.8 486.1 1678.1 483.5 1678 479.8L1679.5 448.2 1702.4 472.8 1696.8 567.1C1697.2 569.7 1699.1 571.6 1701.3 572.3 1702.5 572.6 1702.5 572.6 1702.5 572.6 1706.2 572.6 1709.1 571.1 1709.1 567.4L1713.3 484.9 1740.4 515.8 1739 551.1C1739 554.8 1740.9 556.6 1743.1 557.3 1743.1 557.3 1744.2 557.7 1744.2 557.7 1747.9 557.6 1750.1 554.6 1750.8 552.4L1751.3 527.9 1771.2 550.3C1772.3 550.7 1773.5 551 1774.6 551.4 1775.7 551.8 1778.3 551.4 1779.8 550.6 1782 547.6 1783 544.3 1780 542.1L1760.1 519.7 1784.3 521.2C1788 521.2 1790.2 518.2 1790.9 516 1790.8 512.3 1787.8 510.1 1784.5 509L1749.2 507.5 1721.8 477.8 1803.1 481.7C1806.8 481.6 1810.1 479 1809.7 476.4 1809.7 472.7 1808.2 469.8 1804.4 469.8Z" fill="rgba(59, 72, 145, 0.28)"></path>
        <path d="M2271.2 663.8L2276.6 627.4 2296.6 642C2298.5 643.8 2302.2 643.5 2305.1 641.1 2306.3 638 2306.1 634.3 2304.1 632.6L2278.3 612.7 2283.5 578.9 2335.6 619.7C2339.1 622.1 2342.8 621.9 2344.1 618.8 2346.9 616.4 2346.7 612.7 2343.2 610.3L2285.5 565.4 2289.5 534.7 2355.7 507.6 2377.6 524 2366 601C2366.4 602.1 2366.9 603.2 2367.3 604.2 2367.8 605.3 2369.7 607.1 2371.3 607.7 2375.4 608.5 2378.2 606.1 2378 602.4L2388.6 532.2 2414.9 553.1 2410.6 589.1C2409.5 589.6 2409.9 590.6 2410.4 591.7 2411.3 593.9 2413.2 595.6 2415.8 595.8 2418.5 596 2421.3 593.6 2422.6 590.6L2425.8 561.3 2459.1 587C2461.1 588.7 2464.8 588.5 2467.6 586.1 2468.9 583 2468.7 579.3 2466.7 577.6L2435.4 553.6 2458.2 544.3C2461.4 543 2462.3 538.8 2461.4 536.7 2460.1 533.4 2456.6 531 2453.3 532.4L2424 544.3 2397.7 523.4 2458.5 498.6C2461.8 497.2 2463 494.2 2461.7 490.9 2460.4 487.7 2457.3 486.4 2454.1 487.7L2386.7 515.2 2363.3 498.2 2373.4 426.8 2398.4 416.6 2457.6 462.2C2460 465 2464.8 464.3 2466.1 461.2 2468.9 458.8 2467.6 455.6 2465.1 452.8L2411.5 411.3 2443 398.4 2469.3 419.4C2471.2 421.1 2476 420.4 2477.7 418.5S2478.8 411.7 2476.4 408.9L2456 393.1 2494 377.6C2497.3 376.3 2498.1 372.1 2496.8 368.9 2495.9 366.7 2492.4 364.3 2489.1 365.6L2451.1 381.2 2454.2 354.6C2454.4 352 2453 348.7 2448.9 347.9 2446.3 347.7 2442.4 350.5 2442.2 353.1L2438.1 386.5 2406.6 399.4 2415.9 332.2C2415.6 328.5 2414.3 325.2 2410.2 324.4 2407.5 324.2 2403.6 327 2403.4 329.7L2393.5 404.7 2368.6 414.9 2311.4 371.1 2316.2 342.5 2383.5 315C2386.8 313.7 2388.1 310.6 2386.7 307.3 2385.4 304.1 2381.9 301.7 2378.6 303L2317.8 327.9 2321.9 294.5 2351.2 282.5C2354.5 281.2 2355.8 278.2 2354.5 274.9 2353.1 271.6 2350.1 270.4 2346.8 271.7L2324 281 2329.6 242C2329.8 239.3 2326.9 235.4 2324.3 235.2 2320.6 235.5 2317.4 236.8 2317.6 240.5L2311.4 281.1 2289 263.6C2285.9 262.3 2282.2 262.6 2280.5 264.5 2278.8 266.5 2278.6 269.1 2279.5 271.3 2279.5 271.3 2279.9 272.4 2281.5 273L2309.7 295.7 2305.6 329.1 2248.9 286.3C2246.4 283.5 2242.7 283.8 2240.4 287.3 2239.7 288.8 2239.1 290.3 2240 292.5 2240.4 293.6 2240.9 294.7 2241.3 295.8L2303.5 342.6 2299.4 369.6 2233.1 396.7 2208.8 377.5 2218.5 305.1C2219.3 300.9 2216.9 298.1 2213.2 298.4 2210.2 297.1 2207.3 299.5 2206.5 303.6L2197.8 369.3 2170.4 348.8 2175 316.5C2175.2 313.9 2172.8 311.1 2169.7 309.8 2166 310 2162.8 311.4 2163 315.1L2159 339.5 2129.7 317.3C2127.3 314.5 2124 315.8 2121.2 318.2 2120.6 319.7 2120.4 322.4 2121.2 324.5 2121.2 324.5 2121.7 325.6 2122.1 326.7L2153.5 350.7 2126.3 361.8C2124.1 362.6 2121.8 366.1 2123.1 369.4 2124.4 372.7 2128.6 373.5 2130.7 372.6L2164.4 358.9 2191.8 379.4 2125.5 406.4C2122.3 407.8 2121.4 411.9 2122.8 415.2S2127.2 419.7 2130.4 418.4L2203.2 388.6 2225.6 406.1 2215.4 477.5 2187.2 489 2127.6 442.4C2124.5 441.1 2120.8 441.3 2118 443.7 2117.3 445.3 2117.1 447.9 2118 450.1 2118.5 451.1 2118.9 452.2 2120.4 452.9L2174.1 494.3 2142.6 507.2 2115.2 486.7C2113.3 485 2109.6 485.2 2106.7 487.6 2105.5 490.7 2105.7 494.4 2107.7 496.1L2129.6 512.5 2094.8 526.7C2092.7 527.6 2090.7 532.2 2091.6 534.4 2092.9 537.6 2097.5 539.5 2099.7 538.7L2134.5 524.5 2129.9 550.4C2130.3 551.5 2130.8 552.6 2131.2 553.7 2132.1 555.9 2134.1 557.6 2135.6 558.2 2139.3 558 2142.1 555.6 2143.4 552.5L2147.5 519.1 2179 506.3 2169.7 573.4C2168.8 577.6 2171.3 580.4 2173.9 580.6 2178 581.4 2180.8 579 2182.1 576L2192 500.9 2220.3 489.4 2277.5 533.2 2273.8 561.4 2201 591.1C2197.7 592.4 2196.4 595.5 2197.8 598.7 2199.1 602 2202.2 603.3 2205.4 601.9L2271.7 574.9 2266.5 608.7 2232.8 622.4C2230.6 623.3 2228.7 627.9 2230 631.2 2231.4 634.4 2235.5 635.3 2237.7 634.4L2264.8 623.3 2259.2 662.3C2259.7 663.4 2259.7 663.4 2260.1 664.5 2261 666.7 2263 668.4 2264.5 669.1 2268.2 668.8 2271 666.4 2271.2 663.8ZM2233.3 484.1L2227.4 478.9 2228.4 472.1 2236.5 414.3 2237.5 407.6 2244.1 404.9 2297.3 383.2 2303.8 380.5 2309.3 384.6 2355.5 420.2 2361 424.3 2360.4 432.2 2351.9 488.9 2351.3 496.7 2344.8 499.4 2291.5 521.1 2285 523.8 2279.1 518.6 2233.3 484.1Z" fill="rgba(59, 72, 145, 0.28)"></path>
        <path d="M333.4 241.6L299 291.8 245.6 301.4 263.9 250.4 319.2 224.8C319.2 224.8 319.7 224.4 319.7 224.4 320.9 223.4 321 221.4 320.6 219.8 319.8 217.6 317.2 216.9 315.6 218.3L267.4 240.8 276.2 216 297.4 205.8C297.4 205.8 297.9 205.4 297.9 205.4 299 204.4 299.2 202.3 298.8 200.7 298 198.6 295.4 197.9 293.7 199.3L279.1 205.9 285.9 187.7C286.5 186.2 285.2 183.5 283.7 182.8 281.7 181.6 279.5 183.5 278.8 185L272.1 203.2 265.5 188.6C264.7 186.4 262.1 185.7 260.4 187.1 258.3 188 257.5 190.5 259 192.2L269.1 213.3 259.8 237.5 237.3 189.3C236.5 187.2 233.9 186.4 232.3 187.8 230.1 188.7 229.4 191.2 230.8 192.9L256.3 248.2 238 299.2 202.5 257.2 207.6 196.2C207.8 194.1 206.4 192.4 204.3 192.3 202.2 192.1 200.6 193.5 200.4 195.6L195.9 249.3 178.8 229.1 180.7 206.4C180.9 204.3 179.5 202.7 177.4 202.5 175.4 202.3 173.7 203.7 173.5 205.8L172.2 221.3 159 205.6C158.1 203.5 155.5 203.8 153.8 205.2 152.1 206.6 151.9 208.7 153.4 210.3L165.7 224.9 150.2 223.6C148.1 223.4 146.4 224.8 146.2 226.9S147.5 230.7 149.5 230.8L172.3 232.7 189.3 252.9 135.6 248.4C133.5 248.2 131.8 249.6 131.7 251.7 131.5 253.8 132.9 255.4 135 255.6L195.9 260.8 230.9 302.2 177.6 311.8 128.9 278C126.9 276.8 124.8 277.7 123.1 279.1 121.9 281.1 122.7 283.2 124.2 284.9L167.9 315.1 142 319.7 122.9 306.1C120.9 304.9 118.8 305.8 117.1 307.2 115.9 309.2 116.7 311.3 117.7 312.4L131 321.4 111.9 325C110.3 325.4 108.1 327.3 109 329.4 109.8 331.6 111.2 333.2 113.4 332.4L132.4 328.8 123.5 342.1C122.3 344.1 123.2 346.2 124.1 347.3 125.6 348 127.7 348.2 128.8 347.2 128.8 347.2 129.4 346.7 129.4 346.7L142.9 327.6 168.8 323 138.6 366.8C137.4 368.7 138.3 370.9 139.2 372 140.7 372.7 142.8 372.8 143.9 371.9 143.9 371.9 144.5 371.4 144.5 371.4L178.9 321.2 232.2 311.7 213.9 362.7 158.6 388.2C156.5 389.1 155.8 391.6 157.2 393.3 158 395.5 160.6 396.2 162.3 394.8L210.5 372.3 201.6 397.1 180.5 407.2C178.3 408.1 177.6 410.6 179 412.3 179.9 414.5 182.4 415.2 184.1 413.8L198.7 407.2 191.9 425.4C191.3 426.9 192.6 429.6 194.1 430.3 195.6 430.9 197.2 430.5 198.4 429.6 198.9 429.1 199.5 428.6 199.6 427.6L206.3 409.4 212.9 424C213.7 426.2 216.3 426.9 218 425.5 218 425.5 218.5 425 218.5 425 219.6 424.1 219.8 422 219.4 420.4L209.2 399.3 218.1 374.5 240.6 422.7C241.4 424.9 244 425.6 245.6 424.2 245.6 424.2 246.2 423.7 246.2 423.7 247.3 422.8 247.5 420.7 247.1 419.1L221.6 363.9 239.9 312.9 274.9 354.3 269.8 415.3C269.6 417.4 271.1 419 273.1 419.2 275.2 419.4 276.9 418 277 415.9L282 362.7 299.1 382.9 297.2 405.6C297 407.7 298.4 409.4 300.5 409.6S304.2 408.3 304.4 406.2L305.7 390.7 318 405.3C319.4 407 321.5 407.2 323.2 405.8 324.9 404.3 325 402.3 323.6 400.6L311.3 386 326.8 387.3C327.8 387.4 328.9 387.5 330 386.6S331.2 384.6 331.3 383.5C331.5 381.5 330 379.8 328 379.6L305.2 377.7 288.2 357.5 341.9 362.1C343 362.1 344 362.2 345.1 361.3 345.7 360.8 346.3 359.3 346.4 358.3 346.6 356.2 345.2 354.5 343.1 354.4L282.1 349.2 247.1 307.8 300.5 298.2 350.7 332.6C352.2 333.3 354.2 333.4 355.4 332.5 355.4 332.5 355.9 332 355.9 332 357.1 330 356.3 327.9 355.3 326.8L311.6 296.5 337.5 291.9 356.6 305.5C358.1 306.2 360.2 306.4 361.3 305.4 361.3 305.4 361.9 304.9 361.9 304.9 363.1 303 362.2 300.8 361.3 299.7L348 290.8 367 287.2C367.6 286.7 368.6 286.8 369.2 286.3 370.3 285.4 370.9 283.8 370.5 282.2 369.7 280.1 368.3 278.4 366.1 279.3L347.1 282.9 356 269.6C357.2 267.6 356.3 265.4 355.4 264.3 353.4 263.1 351.3 264 350.1 264.9L336.6 284.1 310.7 288.7 340.9 244.9C342.1 242.9 341.2 240.8 340.3 239.6 337.2 239.4 334.6 239.7 333.4 241.6Z" fill="rgba(66, 68, 90, 0.56)"></path>
        <path d="M1176.8 589.6L1143.7 565.4 1165.8 554.5C1168.3 553.5 1169.8 550.1 1168.9 546.5 1166.8 543.9 1163.4 542.5 1160.8 544.6L1132.6 557.4 1105.9 539.7 1164.8 513.1C1167.4 511 1168.9 507.6 1167.9 505.2 1165.9 501.4 1162.5 500 1159.9 502.1L1094.9 531.6 1055 503.3 1108.4 485.7 1059 458.9 1103.2 438.1 1162 478.7C1161.9 479.9 1163.1 480 1164.3 480.1 1166.6 480.3 1169 479.3 1170.4 477.1 1171.8 474.9 1170.9 471.3 1168.8 468.7L1115.5 432.1 1145 419.5 1170.5 437.1C1171.5 438.3 1172.7 438.4 1173.9 438.5 1175 438.7 1177.5 437.7 1178.9 435.5 1180.2 433.2 1179.4 429.6 1177.2 428.2L1157.3 413.5 1194.2 395.6C1197.8 394.8 1198.1 391.2 1197.3 387.6 1196.3 385.2 1192.9 383.7 1189.2 385.7L1152.4 402.5 1154.6 377.9C1154.9 374.4 1151.6 371.8 1149.2 371.5 1145.7 371.2 1143.2 373.4 1142.9 376.9L1140.1 408.4 1110.6 421.1 1116.3 358C1116.6 354.5 1114.5 351.9 1111 351.6 1108.6 351.4 1104.9 353.4 1104.6 356.9L1098.3 427.1 1054.1 447.8 1064.8 393.4 1017.5 422.2 1021.9 373.1 1085.8 343.5C1089.5 341.5 1089.8 338 1088.9 335.5 1087.9 333.1 1084.5 331.6 1080.9 332.4L1023 360.2 1025.9 328.7 1054.2 314.7C1057.8 313.9 1059.3 310.5 1057.3 306.8 1056.3 304.3 1052.9 302.8 1049.2 304.9L1027.1 314.7 1030.8 273.8C1031.1 270.3 1029 267.7 1025.5 267.4S1019.4 269.2 1019.1 272.7L1015.4 313.6 995.4 300C992.1 297.4 988.5 298.2 987.2 300.5 984.5 303.8 985.4 307.4 988.8 308.9L1014.2 327.6 1011.3 359.2 959.3 321.6C955.9 320.1 952.3 320.9 951 323.2 948.3 326.5 949.2 330.1 952.6 331.5L1010.2 372 1005.8 421.1 964.3 384.4 965.2 439.9 925.4 411.6 931.7 341.5C932 337.9 928.7 335.3 926.3 335.1 922.8 334.8 920.3 336.9 920 340.4L914.2 404.7 887.6 385.8 890.4 354.3C890.8 350.7 888.6 348.2 885.1 347.9 882.8 347.7 879.1 349.7 878.8 353.2L876.6 377.7 843.3 354.7C840 352.1 836.4 352.9 834.9 356.3 833.5 358.6 833.2 362.1 836.6 363.6L869.8 387.7 847.6 398.7C845.1 399.7 843.7 403.1 844.6 405.5 845.6 408 847.8 409.3 849 409.4 850.2 409.5 851.3 409.6 852.6 408.6L880.8 395.8 907.5 413.5 848.6 440C846.1 442.2 844.6 445.6 845.5 448 846.5 450.4 848.7 451.8 851.1 452 852.2 452.1 852.2 452.1 853.5 451.1L918.6 421.6 958.5 449.9 905 467.5 954.5 494.3 910.2 515.1 851.4 474.4C849.2 473.1 845.7 472.8 843 476.1 841.6 478.3 842.5 481.9 844.6 484.4L897.9 521 868.5 533.7 843 516.1C840.8 513.6 837.2 514.4 834.6 517.7 833.2 519.9 834.1 523.5 836.2 526.1L856.2 539.7 819.2 557.6C815.6 558.4 815.3 561.9 816.2 565.5 817.2 566.8 819.4 568.2 820.6 568.3 821.8 568.4 823 568.5 824.2 567.4L861.1 550.7 858.9 575.2C858.6 578.8 861.9 581.4 864.2 581.6L864.2 581.6C867.7 581.9 870.2 579.8 870.6 576.3L873.4 544.7 902.8 532.1 897.1 595.2C896.8 598.7 899 601.2 902.5 601.5S908.5 599.7 908.8 596.2L915.1 526.1 959.4 505.3 948.6 559.7 996 531 991.6 580.1 927.6 609.7C923.9 611.7 923.6 615.2 924.6 617.7 925.5 620.1 928.9 621.6 932.5 620.7L990.3 594.1 987.6 624.5 959.2 638.4C955.6 639.3 954.1 642.7 956.2 646.4 957.1 648.8 960.5 650.3 964.1 649.5L986.3 638.5 982.7 679.4C982.3 682.9 984.5 685.5 988 685.8S994 684 994.3 680.5L998 639.5 1018 653.1C1019.1 654.4 1020.2 654.5 1021.4 654.6 1023.7 654.8 1025 653.7 1026.3 652.7 1028.9 649.4 1028.1 645.8 1024.7 644.3L999.3 625.5 1002.1 594 1054.1 631.6C1055.3 631.7 1056.4 631.8 1057.6 631.9 1059.9 632.1 1061.2 631.1 1062.5 630 1065.1 626.7 1064.3 623.1 1060.9 621.6L1003.2 581.1 1007.6 532 1049.1 568.7 1048.2 513.3 1088.1 541.6 1081.8 611.7C1081.5 615.2 1084.8 617.9 1087.1 618.1 1090.6 618.4 1093.2 616.3 1093.5 612.8L1099.1 549.7 1125.8 567.4 1123 598.9C1122.7 602.4 1124.8 605 1128.3 605.3S1134.4 603.5 1134.7 600L1136.9 575.4 1170.1 598.4C1171.2 599.7 1172.4 599.8 1173.5 599.9 1174.7 600 1177.2 599.1 1178.5 596.8 1179.9 594.6 1180.2 591.1 1176.8 589.6ZM1037.3 542.9L1003.5 512.8 964.8 536.4 973.6 491.3 934.3 470.1 976.8 455.1 976.1 410.2 1010 440.4 1048.6 416.7 1039.9 460.7 1079.2 483.1 1036.7 496.9 1037.3 542.9Z" fill="rgba(66, 68, 90, 0.56)"></path>
        <path d="M469.3 630.5L450.9 630.3 456.8 619.4C457.5 618.3 457.1 616.5 455.7 615.3 454.1 614.9 452.3 615.3 451.6 616.4L443.6 630.5 426.5 630.3 443 601.7C444 599.8 443.6 597.9 442 597.5 440.6 596.3 438.8 596.7 437.9 598.6L419.6 630.2 404.1 630.4 386.1 599.5 392.7 587.5 431.7 587.9C432.2 587.6 432.7 587.3 433.2 587 433.7 586.7 434.4 585.6 434.6 584.8 434.7 582.7 433.4 581.5 431.5 581.9L396 581.5 404.6 567 422.7 566.7C423 567.2 423.5 566.9 424 566.6 425 566 425.7 564.9 425.6 563.6 425.6 562.3 424.2 561.1 422.6 560.6L407.9 561 418.3 542.8C419 541.7 418.6 539.9 417.2 538.6 415.6 538.2 413.8 538.6 413.1 539.7L403.4 556.9 397.2 546.2C396.3 544.7 394.2 544.6 393.2 545.2 391.7 546 390.7 547.9 391.6 549.5L399.6 563.1 391 577.6 374.5 549.2C373.6 547.7 372 547.3 370.5 548.2 369 549.1 368.6 550.7 369.4 552.2L387.7 583.6 380.9 596.4 344.9 596.3 338.1 584.7 356.6 552.2C357.8 550.8 357.1 548.5 355.5 548.1 354.1 546.9 352.6 547.7 351.4 549.1L334.6 578.6 326 563.9 334.6 549.4C335.3 548.3 334.6 546 333.5 545.3S330.1 545.2 328.9 546.6L322.5 557.8 312.1 540.1C311.3 538.5 309.1 538.4 307.6 539.3 306.6 539.9 305.7 541.8 306.6 543.3L316.9 561.1 303.5 561.4C302.2 561.5 300.7 562.3 300.6 564.5 300.6 565.8 302.3 567.5 303.6 567.4L320.4 567.1 329 581.8 295.1 581.9C293.3 582.3 291.8 583.2 291.6 585.3 291.7 586.6 293.4 588.3 294.7 588.2L332.5 587.9 339.3 599.6 321.6 630.9 307.1 630.6 288.8 599.1C287.9 597.6 286.3 597.2 284.8 598.1 283.3 598.9 282.4 600.8 283.3 602.4L299.8 630.8 283 631 275 617.4C274.1 615.8 272.5 615.4 271 616.3 269.5 617.2 269 618.8 269.9 620.3L276.1 631 256.4 630.9C255.1 631 253.4 632.7 253.5 634 253.8 635.8 254.7 637.3 256.5 636.9L277.1 637.2 270 649.5C269.5 651.1 269.9 652.9 271 653.6 272.1 654.3 273.4 654.3 274.4 653.7 274.4 653.7 274.9 653.4 275.1 652.6L284.4 637 301.2 636.7 284 667.8C282.8 669.2 283.2 671 285.1 671.9 285.9 672.1 286.7 672.3 287.7 671.8 288.2 671.5 288.7 671.2 289.2 670.9L308.1 636.8 321.7 637 339.7 667.9 331.9 681.3 295.4 681.5C293.3 681.4 292.1 682.8 292.4 684.6 292 686.2 293.4 687.4 295.5 687.6L328.6 687.3 320.4 702.3 304.1 702.3C302.8 702.3 301.5 703.7 301.1 705.3 301.5 707.2 302.4 708.7 304.2 708.3L316.6 708.6 307.6 724.6C306.4 726 307.3 727.6 308.7 728.8 309.5 729 310.8 728.9 311.8 728.3 311.8 728.3 312.3 728 312.8 727.7L322.5 710.5 329.9 723.2C330.5 724.2 332.3 725.2 333.9 724.3 335.4 723.4 335.5 721.3 334.9 720.3L325.8 704.6 334 689.6 352 720.5C352.9 722 355 722.1 356.6 721.3S358.5 718.8 357.6 717.2L337.8 683.3 344.9 671 381 671.1 388.6 684.3 369.7 717C369.3 718.6 369.6 720.4 371 721.7 371.8 721.9 373.1 721.8 374.2 721.2 374.7 720.9 375.2 720.6 375.4 719.8L392.2 690.3 400.7 705 392.5 720C391.8 721.1 392.1 722.9 393.5 724.2 395.1 724.6 397 724.2 397.7 723.1L404.3 711.1 413.7 727.3C414.3 728.4 416.7 729 417.7 728.4 419.3 727.5 419.9 725.1 419.3 724.1L409.9 707.9 423 708.3C423.5 708.1 424 707.8 424.6 707.5 425.6 706.9 426.3 705.8 426.5 705 426.1 703.2 424.7 701.9 423.1 701.5L406.3 701.8 397.8 687.1 431.7 687C433.8 687.2 435 685.8 434.9 684.5 435 682.3 433.7 681.1 432 680.7L394.2 681 386.5 667.8 404.3 636.5 418.4 636.3 438.2 670.3C439.1 671.8 440.7 672.3 442.2 671.4 443.8 670.5 444.2 668.9 443.3 667.4L425.3 636.4 442.4 636.7 451.5 652.4C452.1 653.4 454.5 654 456.1 653.1 457.6 652.3 457.7 650.1 457.1 649.1L449.7 636.5 469.5 636.5C470 636.2 470 636.2 470.5 635.9 471.5 635.3 472.2 634.2 472.4 633.4 472 631.6 470.6 630.4 469.3 630.5ZM383 661.7L380.8 665 377.4 665 348.2 665 344.8 665 343 661.9 328.6 637.1 326.8 634 328.5 631 342.9 605.7 344.5 602.7 348.5 602.4 377.1 602.7 381.1 602.4 382.8 605.5 397.3 630.3 399.1 633.4 396.9 636.7 383 661.7Z" fill="rgba(59, 72, 145, 0.28)"></path>
    </g>
    <defs>
        <mask id="SvgjsMask1042">
            <rect width="2640" height="700" fill="#ffffff"></rect>
        </mask>
        <filter id="SvgjsFilter1043">
            <feGaussianBlur stdDeviation="1"></feGaussianBlur>
        </filter>
    </defs>
</svg>